<?xml version="1.0" standalone="no"?>
<!DOCTYPE svg PUBLIC "-//W3C//DTD SVG 1.1//EN" "http://www.w3.org/Graphics/SVG/1.1/DTD/svg11.dtd" >
<svg xmlns="http://www.w3.org/2000/svg" xmlns:xlink="http://www.w3.org/1999/xlink" version="1.1">
<metadata>
Created by FontForge 20170731 at Tue Sep 29 18:06:58 2009
 By Aleksey,,,
Copyright (c) 2006 by Rian Hughes / Device. All rights reserved.
</metadata>
<defs>
<font id="Paralucent-Medium" horiz-adv-x="547" >
  <font-face 
    font-family="Paralucent Medium"
    font-weight="400"
    font-stretch="normal"
    units-per-em="1000"
    panose-1="2 0 5 3 4 0 0 2 0 4"
    ascent="750"
    descent="-250"
    x-height="512"
    cap-height="640"
    bbox="-85 -268 1710 911"
    underline-thickness="20"
    underline-position="-173"
    unicode-range="U+0020-FB02"
  />
<missing-glyph horiz-adv-x="463" 
d="M60 0v640h343v-640h-343zM80 622v-602l141 300zM384 20v602l-142 -302zM231 297l-129 -277h259zM102 622l129 -279l130 279h-259z" />
    <glyph glyph-name=".notdef" horiz-adv-x="463" 
d="M60 0v640h343v-640h-343zM80 622v-602l141 300zM384 20v602l-142 -302zM231 297l-129 -277h259zM102 622l129 -279l130 279h-259z" />
    <glyph glyph-name=".null" horiz-adv-x="0" 
 />
    <glyph glyph-name="nonmarkingreturn" horiz-adv-x="333" 
 />
    <glyph glyph-name="space" unicode=" " horiz-adv-x="225" 
 />
    <glyph glyph-name="exclam" unicode="!" horiz-adv-x="192" 
d="M146 390l-17 -220h-62l-17 220v250h96v-250zM175 57q0 -37 -19.5 -50.5t-58.5 -13.5t-58 13.5t-19 50.5t19.5 51t57.5 14t58 -14t20 -51z" />
    <glyph glyph-name="quotedbl" unicode="&#x22;" horiz-adv-x="322" 
d="M287 572l-17 -185h-61l-18 185v68h96v-68zM131 572l-16 -185h-63l-17 185v68h96v-68z" />
    <glyph glyph-name="numbersign" unicode="#" horiz-adv-x="756" 
d="M730 169h-225l-56 -169h-107l57 169h-150l-57 -169h-106l56 169h-116v87h148l41 121h-189v89h219l59 174h105l-59 -174h151l59 174h105l-59 -174h124v-89h-154l-41 -121h195v-87zM471 377h-151l-41 -121h151z" />
    <glyph glyph-name="dollar" unicode="$" horiz-adv-x="524" 
d="M497 147q0 -59 -49.5 -100.5t-132.5 -51.5v-126h-96v126q-196 18 -194 195h105q0 -113 140 -113q62 0 91 19t31 45q2 30 -33.5 47t-88 26t-105.5 21t-91 43t-39 82q-1 64 44.5 106t139.5 50v121h96v-123q174 -21 174 -187h-105q-3 53 -32 80t-96 27q-63 0 -90 -19.5
t-25 -49.5q1 -25 38 -39.5t89 -23.5t104 -22.5t88.5 -47t36.5 -85.5z" />
    <glyph glyph-name="percent" unicode="%" horiz-adv-x="1237" 
d="M1199 223q0 -230 -229 -230q-226 0 -226 230t227 230q228 0 228 -230zM786 640l-217 -640h-107l188 551h-215q59 -40 59 -140q0 -232 -229 -232q-67 0 -113.5 18.5t-70 52.5t-33 72.5t-9.5 87.5t10.5 87t36 72t77 52.5t126.5 18.5h497zM1104 223q0 66 -29 104t-104 38
q-74 0 -103 -38t-29 -104t29 -103.5t102 -37.5q74 0 104 37t30 104zM399 411q0 64 -29 102t-104 38q-74 0 -103 -37t-29 -103q0 -67 29 -104t102 -37q74 0 104 37t30 104z" />
    <glyph glyph-name="ampersand" unicode="&#x26;" horiz-adv-x="679" 
d="M682 0h-133l-67 79q-76 -86 -191 -86q-117 0 -178.5 53.5t-61.5 147.5q0 42 15 75.5t41 54t52.5 33t57.5 19.5l-127 155v109h425v-90h-310l260 -314q19 73 19 190h103q0 -163 -48 -267zM422 140l-141 161q-122 -15 -122 -107q0 -52 33 -80t95 -28q88 0 135 54z" />
    <glyph glyph-name="quotesingle" unicode="'" horiz-adv-x="166" 
d="M131 572l-16 -185h-63l-17 185v68h96v-68z" />
    <glyph glyph-name="parenleft" unicode="(" horiz-adv-x="340" 
d="M326 -66q-82 0 -138.5 26.5t-87 79.5t-43 120t-12.5 162q0 94 12.5 161t43.5 119.5t87 78.5t138 26v-80q-47 0 -81 -15t-54 -39.5t-32 -65t-16 -83.5t-4 -102q0 -77 6.5 -127.5t26 -94t57.5 -64.5t97 -21v-81z" />
    <glyph glyph-name="parenright" unicode=")" horiz-adv-x="340" 
d="M295 322q0 -95 -12.5 -162t-43 -120t-87 -79.5t-138.5 -26.5v81q59 0 97 21t57.5 64.5t26 94t6.5 127.5q0 59 -4 102t-16 83.5t-32 65t-54 39.5t-81 15v80q158 0 219.5 -96.5t61.5 -288.5z" />
    <glyph glyph-name="asterisk" unicode="*" horiz-adv-x="469" 
d="M436 504l-124 -60l124 -62l-46 -71l-118 70l8 -126h-91l5 126l-117 -70l-45 71l122 62l-122 60l45 72l117 -70l-5 134h91l-8 -134l118 69z" />
    <glyph glyph-name="plus" unicode="+" horiz-adv-x="609" 
d="M581 211h-229v-211h-96v211h-230v90h230v211h96v-211h229v-90z" />
    <glyph glyph-name="comma" unicode="," horiz-adv-x="204" 
d="M178 38l-24 -169h-69l9 126q-68 0 -68 64q0 36 19.5 49.5t58.5 13.5q42 0 61 -18.5t13 -65.5z" />
    <glyph glyph-name="hyphen" unicode="-" horiz-adv-x="374" 
d="M334 214h-294v88h294v-88z" />
    <glyph glyph-name="period" unicode="." horiz-adv-x="205" 
d="M180 57q0 -36 -19.5 -50t-56.5 -14q-38 0 -58 14t-20 50q0 37 19.5 51t58.5 14q37 0 56.5 -14t19.5 -51z" />
    <glyph glyph-name="slash" unicode="/" horiz-adv-x="322" 
d="M322 640l-217 -640h-105l219 640h103z" />
    <glyph glyph-name="zero" unicode="0" horiz-adv-x="610" 
d="M571 319q0 -76 -11.5 -132t-40.5 -101.5t-82.5 -69t-132.5 -23.5q-78 0 -131.5 23.5t-82 69.5t-40 101.5t-11.5 132.5t11.5 132.5t40 101.5t82 69.5t131.5 23.5q79 0 132.5 -23.5t82.5 -69.5t40.5 -102t11.5 -133zM461 319q0 121 -32 179t-125 58q-91 0 -123 -58
t-32 -178t31.5 -177.5t123.5 -57.5q93 0 125 57.5t32 176.5z" />
    <glyph glyph-name="one" unicode="1" horiz-adv-x="307" 
d="M242 0h-110v550h-122v75l125 15h107v-640z" />
    <glyph glyph-name="two" unicode="2" horiz-adv-x="560" 
d="M520 -1l-479 1v97q0 58 27 100.5t67.5 65t88 43t88.5 35t69.5 40.5t30.5 61q8 115 -127 115q-131 0 -131 -138h-107q0 228 235 228q128 0 186 -57t53 -154q-3 -61 -43 -103.5t-94.5 -65t-108 -42.5t-91 -50t-37.5 -73v-12h373v-91z" />
    <glyph glyph-name="three" unicode="3" horiz-adv-x="555" 
d="M516 201q0 -90 -59.5 -149t-179.5 -59q-125 0 -184 62t-59 165h103q0 -64 36.5 -100.5t107.5 -36.5q64 0 96 34t32 84q0 57 -36.5 87.5t-130.5 30.5h-96v80l226 151h-315v90h435v-115l-215 -125q49 0 90.5 -10.5t75.5 -33t53.5 -62t19.5 -93.5z" />
    <glyph glyph-name="four" unicode="4" horiz-adv-x="587" 
d="M577 134h-112v-134h-110v134h-338v100l302 406h146v-418h112v-88zM355 531l-233 -309h233v309z" />
    <glyph glyph-name="five" unicode="5" horiz-adv-x="561" 
d="M534 210q0 -94 -59.5 -155.5t-179.5 -61.5q-125 0 -184 62t-59 165h107q0 -65 34.5 -101t105.5 -36q64 0 95.5 37t31.5 90q0 59 -36.5 90.5t-120.5 31.5h-198v308h431l-1 -90h-322v-131h121q45 0 84 -10.5t74 -33t55.5 -65t20.5 -100.5z" />
    <glyph glyph-name="six" unicode="6" horiz-adv-x="592" 
d="M554 205q0 -93 -61.5 -152.5t-186.5 -59.5q-151 0 -209 79t-58 249q0 172 62 249t198 77q121 0 181 -48.5t60 -156.5h-108q0 60 -31 87.5t-102 27.5q-49 0 -81.5 -17.5t-48 -52.5t-20.5 -75.5t-4 -99.5q10 38 55 65.5t124 27.5q63 0 112.5 -18t83.5 -64.5t34 -117.5z
M446 205q0 114 -147 114q-71 0 -107.5 -32t-36.5 -82q0 -53 38.5 -88t113.5 -35q64 0 101.5 33t37.5 90z" />
    <glyph glyph-name="seven" unicode="7" horiz-adv-x="470" 
d="M16 640h451v-103l-281 -537h-119l297 550h-348v90z" />
    <glyph glyph-name="eight" unicode="8" horiz-adv-x="606" 
d="M567 182q0 -189 -262 -189q-62 0 -110 10.5t-77 28t-47.5 41.5t-25 47.5t-6.5 50.5q0 114 120 153q-107 35 -107 149q0 85 56.5 129.5t195.5 44.5q248 0 248 -164q0 -109 -105 -142q60 -18 90 -61t30 -98zM447 464q0 46 -27 70t-116 24q-88 0 -115.5 -24t-27.5 -70
q0 -21 4.5 -35.5t18 -29t44 -22t76.5 -7.5q87 0 115 25t28 69zM459 184q0 47 -35.5 77.5t-119.5 30.5q-86 0 -121.5 -30.5t-35.5 -77.5q0 -101 158 -101q154 0 154 101z" />
    <glyph glyph-name="nine" unicode="9" horiz-adv-x="590" 
d="M550 321q0 -175 -63 -251.5t-200 -76.5q-122 0 -184.5 49.5t-62.5 158.5h107q0 -119 140 -119q50 0 83 18t49 54t21 77t4 100q-10 -39 -53.5 -66.5t-121.5 -27.5q-99 0 -164.5 48.5t-65.5 151.5q0 94 61 152t187 58q151 0 207 -78t56 -248zM434 437q0 53 -37 87.5
t-111 34.5q-65 0 -102 -32.5t-37 -89.5q0 -112 148 -112q70 0 104.5 31.5t34.5 80.5z" />
    <glyph glyph-name="colon" unicode=":" horiz-adv-x="205" 
d="M180 455q0 -65 -76 -65q-38 0 -58 14.5t-20 50.5q0 37 19.5 50.5t58.5 13.5q37 0 56.5 -14t19.5 -50zM180 57q0 -64 -76 -64q-38 0 -58 14t-20 50q0 37 19.5 51t58.5 14q37 0 56.5 -14t19.5 -51z" />
    <glyph glyph-name="semicolon" unicode=";" horiz-adv-x="204" 
d="M180 455q0 -65 -76 -65q-38 0 -58 14.5t-20 50.5t20 50t58 14q37 0 56.5 -14t19.5 -50zM178 38l-24 -169h-69l9 126q-68 0 -68 64q0 36 19.5 49.5t58.5 13.5q42 0 61 -18.5t13 -65.5z" />
    <glyph glyph-name="less" unicode="&#x3c;" horiz-adv-x="541" 
d="M514 214h-357l94 -172h-109l-117 213l116 210h110l-91 -164h354v-87z" />
    <glyph glyph-name="equal" unicode="=" horiz-adv-x="635" 
d="M595 321h-555v88h555v-88zM595 110h-555v89h555v-89z" />
    <glyph glyph-name="greater" unicode="&#x3e;" horiz-adv-x="541" 
d="M516 255l-117 -213h-110l95 172h-358v87h355l-92 168h110z" />
    <glyph glyph-name="question" unicode="?" horiz-adv-x="534" 
d="M495 439q0 -55 -22 -96t-56.5 -62t-69 -31t-67.5 -10h-19l-16 -68h-91v150h80q153 3 153 117q0 51 -31 83t-96 32q-140 0 -140 -132h-106q0 103 58.5 164t183.5 61q121 0 180 -57.5t59 -150.5zM277 58q0 -37 -19.5 -51t-56.5 -14q-38 0 -58.5 14t-20.5 51q0 36 20 49.5
t59 13.5q38 0 57 -13.5t19 -49.5z" />
    <glyph glyph-name="at" unicode="@" horiz-adv-x="911" 
d="M865 351q0 -58 -9 -100.5t-32.5 -78t-67.5 -54t-109 -18.5h-53l-17 74q-20 -36 -61 -57.5t-97 -21.5q-74 0 -121 34.5t-47 100.5q0 60 40 87.5t134 39.5l130 17q-1 44 -23.5 63t-80.5 19q-53 0 -71 -16t-18 -50h-97q4 151 185 151q63 0 104 -13.5t61 -42t27 -60t7 -79.5
v-166q66 0 91.5 39.5t25.5 131.5q0 67 -13.5 116.5t-46.5 92t-96 64.5t-155 22q-91 0 -154 -25.5t-96 -73t-47 -102t-14 -125.5q0 -78 15.5 -133.5t54 -101t111 -68.5t179.5 -23h178v-85h-178q-112 0 -195 22t-133 57.5t-80 90.5t-40.5 112t-10.5 130q0 410 410 410
t410 -380zM555 304l-115 -17q-53 -8 -72 -20.5t-19 -35.5q0 -56 88 -56q118 0 118 129z" />
    <glyph glyph-name="A" unicode="A" horiz-adv-x="631" 
d="M634 0h-117l-43 125h-314l-46 -125h-115l246 640h149zM446 205l-129 364l-130 -364h259z" />
    <glyph glyph-name="B" unicode="B" horiz-adv-x="607" 
d="M575 186q0 -82 -59.5 -134t-195.5 -52h-254v640h250q122 0 180.5 -43.5t58.5 -116.5q0 -51 -21 -90.5t-64 -49.5q49 -14 77 -58t28 -96zM462 187q0 30 -11 50t-32 29.5t-42 12.5t-51 3h-150v-192h148q82 0 110 25t28 72zM447 457q0 45 -26.5 68.5t-100.5 23.5h-144v-182
h150q121 0 121 90z" />
    <glyph glyph-name="C" unicode="C" horiz-adv-x="667" 
d="M629 246q0 -114 -69.5 -183.5t-219.5 -69.5q-86 0 -146 25.5t-91.5 73t-44.5 102.5t-13 126q0 56 7.5 101.5t28 88.5t53 72.5t85 47t121.5 17.5q148 0 218.5 -71t70.5 -180h-113q-11 160 -176 160q-55 0 -92 -18t-56.5 -52t-27 -73.5t-7.5 -92.5t7.5 -92.5t27 -73.5
t56.5 -51.5t92 -17.5q166 0 176 161h113z" />
    <glyph glyph-name="D" unicode="D" horiz-adv-x="646" 
d="M602 324q0 -153 -78.5 -238.5t-223.5 -85.5h-234v640h244q144 0 218 -81t74 -235zM495 325q-1 126 -50.5 175.5t-158.5 49.5h-111v-460h105q109 0 162 54.5t53 180.5z" />
    <glyph glyph-name="E" unicode="E" 
d="M511 0h-445v640h445v-90h-336v-179h305v-89h-305v-192h336v-90z" />
    <glyph glyph-name="F" unicode="F" horiz-adv-x="521" 
d="M501 550h-326v-179h302v-89h-302v-282h-109v640h435v-90z" />
    <glyph glyph-name="G" unicode="G" horiz-adv-x="687" 
d="M629 0h-63l-27 99q-63 -106 -205 -106q-289 0 -289 327q0 56 7.5 101.5t28 88.5t53 72.5t85 47t121.5 17.5q147 0 216.5 -63t69.5 -159h-112q-13 131 -174 131q-55 0 -92 -18t-56.5 -52t-27 -73.5t-7.5 -92.5t8 -92.5t27.5 -73.5t56.5 -51.5t91 -17.5q89 0 134.5 48.5
t45.5 133.5h-188v90h297v-357z" />
    <glyph glyph-name="H" unicode="H" horiz-adv-x="666" 
d="M601 0h-111v282h-314v-282h-110v640h110v-269h314v269h111v-640z" />
    <glyph glyph-name="I" unicode="I" horiz-adv-x="240" 
d="M176 0h-110v640h110v-640z" />
    <glyph glyph-name="J" unicode="J" horiz-adv-x="339" 
d="M274 640l1 -451q0 -104 -39 -149t-147 -45q-38 0 -89 6v88q28 -5 60 -5q61 0 82.5 24.5t21.5 75.5v456h110z" />
    <glyph glyph-name="K" unicode="K" horiz-adv-x="567" 
d="M599 0h-149l-274 299v-299h-110v640h110v-278l258 278h148l-310 -305z" />
    <glyph glyph-name="L" unicode="L" horiz-adv-x="436" 
d="M422 0h-353v640h110v-550h243v-90z" />
    <glyph glyph-name="M" unicode="M" horiz-adv-x="890" 
d="M825 0h-110v507l-215 -507h-110l-215 507v-507h-109v640h163l186 -436l30 -83q-1 0 5 16.5t13.5 37t11.5 29.5l186 436h164v-640z" />
    <glyph glyph-name="N" unicode="N" horiz-adv-x="716" 
d="M650 0h-136l-335 500v-500h-110v640h141l330 -496v496h110v-640z" />
    <glyph glyph-name="O" unicode="O" horiz-adv-x="701" 
d="M655 319q0 -70 -13.5 -124.5t-46 -102.5t-94.5 -73.5t-151 -25.5t-151 26t-94.5 73.5t-46 102.5t-13.5 126t14 126t46.5 102t94 72.5t150.5 25.5t151 -25.5t94.5 -73t46 -102.5t13.5 -127zM544 319q0 54 -8 94t-28.5 74t-60 51.5t-97.5 17.5t-97 -17.5t-59.5 -51.5
t-28.5 -73.5t-8 -92.5q0 -112 41.5 -174.5t151.5 -62.5q111 0 152.5 62t41.5 173z" />
    <glyph glyph-name="P" unicode="P" horiz-adv-x="605" 
d="M564 426q0 -27 -2.5 -46.5t-10 -46t-25 -45.5t-44.5 -36.5t-72.5 -26.5t-104.5 -9h-129v-216h-110v640h231q70 0 121.5 -14.5t78.5 -35t43 -51.5t20 -56t4 -57zM451 426q0 24 -5 42.5t-19 39t-46 31.5t-80 11h-125v-246h128q47 0 78.5 11t45.5 30.5t18.5 38t4.5 42.5z
" />
    <glyph glyph-name="Q" unicode="Q" horiz-adv-x="702" 
d="M659 0h-287q-97 0 -163.5 23.5t-101 69t-48.5 99.5t-14 128q0 71 14 126t46.5 102.5t94 73t150.5 25.5q72 0 125.5 -17t86.5 -45t53.5 -70t28 -86.5t7.5 -99.5q0 -81 -26.5 -151.5t-77.5 -95.5l112 -21v-61zM544 319q0 54 -8 93.5t-28.5 74t-60 52t-97.5 17.5t-97 -18
t-59.5 -52t-28.5 -73.5t-8 -92.5t8 -91.5t28.5 -71.5t59.5 -49.5t97 -16.5q112 0 153 59t41 169z" />
    <glyph glyph-name="R" unicode="R" horiz-adv-x="605" 
d="M582 0h-148l-258 251v-251h-110v640h228q69 0 120 -14t78 -34t43.5 -50t20.5 -54t4 -53q0 -195 -249 -195zM449 435q0 115 -150 115h-123v-228h125q87 0 117.5 32t30.5 81z" />
    <glyph glyph-name="S" unicode="S" horiz-adv-x="642" 
d="M594 187q0 -37 -13 -69.5t-41 -61.5t-80.5 -46t-124.5 -17q-151 0 -218.5 61t-69.5 175h110q5 -141 175 -141q154 0 154 94q0 35 -31 56.5t-77.5 30t-100.5 20.5t-101 26t-78.5 49t-32.5 87q0 91 62 143.5t194 52.5q134 0 198.5 -59t65.5 -166h-109q-4 68 -41.5 100.5
t-117.5 32.5q-143 0 -143 -93q0 -32 31 -52t78 -28t101 -20.5t101 -28.5t78 -53t31 -93z" />
    <glyph glyph-name="T" unicode="T" horiz-adv-x="496" 
d="M486 550h-184v-550h-107v550h-184v90h475v-90z" />
    <glyph glyph-name="U" unicode="U" horiz-adv-x="654" 
d="M600 640v-353q0 -157 -63.5 -225.5t-209.5 -68.5t-209 68.5t-63 225.5v353h111v-348q0 -106 34 -154t127 -48q94 0 128 48t34 154v348h111z" />
    <glyph glyph-name="V" unicode="V" horiz-adv-x="627" 
d="M630 640l-253 -640h-135l-247 640h117l199 -559l201 559h118z" />
    <glyph glyph-name="W" unicode="W" horiz-adv-x="975" 
d="M970 640l-194 -640h-132l-157 519l-155 -519h-132l-195 640h116l146 -523l158 523h130l157 -523l147 523h111z" />
    <glyph glyph-name="X" unicode="X" horiz-adv-x="587" 
d="M582 0h-118l-170 261l-169 -261h-120l226 336l-209 304h130l142 -221l141 221h130l-209 -304z" />
    <glyph glyph-name="Y" unicode="Y" horiz-adv-x="607" 
d="M609 640l-253 -446v-194h-115v194l-242 446h116l185 -361l194 361h115z" />
    <glyph glyph-name="Z" unicode="Z" horiz-adv-x="561" 
d="M525 0h-488v108l363 442h-363v90h475v-102l-373 -448h386v-90z" />
    <glyph glyph-name="bracketleft" unicode="[" horiz-adv-x="305" 
d="M292 -66h-226v772h226v-81h-131v-611h131v-80z" />
    <glyph glyph-name="backslash" unicode="\" horiz-adv-x="319" 
d="M321 0h-106l-216 640h103z" />
    <glyph glyph-name="bracketright" unicode="]" horiz-adv-x="305" 
d="M240 -66h-228v80h132v611h-132v81h228v-772z" />
    <glyph glyph-name="asciicircum" unicode="^" horiz-adv-x="550" 
d="M502 260l-228 41l-227 -41v87l227 42l228 -43v-79v-7z" />
    <glyph glyph-name="underscore" unicode="_" horiz-adv-x="750" 
d="M776 -268h-800v89h800v-89z" />
    <glyph glyph-name="grave" unicode="`" horiz-adv-x="551" 
d="M491 550l-430 69v87l430 -67v-89z" />
    <glyph glyph-name="a" unicode="a" horiz-adv-x="549" 
d="M510 0h-58l-22 77q-20 -34 -73.5 -59t-127.5 -25q-87 0 -142.5 40t-55.5 117q0 70 51 105t162 46l161 16q-2 60 -31 88.5t-102 28.5q-68 0 -94.5 -25.5t-26.5 -76.5l-104 -1q0 89 49 138.5t175 49.5q61 0 105 -11t69.5 -29t40.5 -48.5t19.5 -62.5t4.5 -77v-291zM405 220
v16l-145 -16q-66 -7 -92.5 -23t-26.5 -46q0 -35 29.5 -54.5t85.5 -19.5q70 0 109.5 38t39.5 105z" />
    <glyph glyph-name="b" unicode="b" horiz-adv-x="581" 
d="M547 256q0 -56 -11 -101t-35 -82.5t-67.5 -58.5t-104.5 -21q-82 0 -130 24t-67 57l-22 -74h-58v707h105v-257q45 69 174 69q216 0 216 -263zM440 256q0 86 -30 129.5t-113 43.5q-84 0 -112.5 -43.5t-28.5 -128.5q0 -88 30.5 -132.5t113.5 -44.5q81 0 110.5 44.5
t29.5 131.5z" />
    <glyph glyph-name="c" unicode="c" 
d="M515 201q0 -98 -57 -153t-171 -55q-255 0 -255 263q0 55 12 99.5t39.5 82.5t79 59.5t122.5 21.5q114 0 172 -56t58 -155h-109q-6 62 -34.5 93t-89.5 31q-141 0 -141 -175q0 -81 32 -126.5t111 -45.5q61 0 88.5 29t33.5 87h109z" />
    <glyph glyph-name="d" unicode="d" horiz-adv-x="581" 
d="M529 0h-58l-24 73q-16 -32 -65 -56t-131 -24q-61 0 -105 21t-68 58.5t-35 82.5t-11 101q0 263 218 263q129 0 174 -70v258h105v-707zM425 256q0 85 -29.5 129t-113.5 44q-82 0 -111.5 -43.5t-29.5 -129.5t29.5 -130.5t110.5 -44.5q83 0 113.5 44t30.5 131z" />
    <glyph glyph-name="e" unicode="e" horiz-adv-x="555" 
d="M521 157q-8 -73 -62.5 -118.5t-167.5 -45.5q-257 0 -257 264q0 262 256 262q55 0 97.5 -16.5t69 -44.5t42 -67.5t20 -83t0.5 -93.5h-374q9 -139 142 -139q102 0 122 82h112zM409 301q1 58 -30 96.5t-99 38.5q-125 0 -134 -137h263q1 0 0 1q1 1 0 1z" />
    <glyph glyph-name="f" unicode="f" horiz-adv-x="325" 
d="M314 425h-139v-425h-101v425h-73v64l73 22v49q0 81 45.5 116.5t147.5 35.5q30 0 47 -1v-87q-7 0 -18 0.5t-16 0.5q-60 0 -82.5 -16t-22.5 -50v-47h139v-87z" />
    <glyph glyph-name="g" unicode="g" horiz-adv-x="534" 
d="M527 -58q0 -67 -57.5 -112t-194.5 -45q-146 0 -202 44.5t-56 135.5h112q4 -50 32.5 -72.5t115.5 -22.5q139 0 139 66q0 15 -8.5 25t-31 17.5t-39.5 11t-55 9.5q-17 3 -50.5 8t-52.5 8.5t-47 9.5t-43.5 13.5t-32 18t-24 25.5t-7.5 34q0 59 87 81q-77 39 -77 129
q0 42 10.5 73.5t37 58t77.5 40.5t126 14h225v-51l-72 -21q25 -13 41 -43t16 -72q0 -43 -10 -73.5t-34.5 -56t-71.5 -38t-116 -12.5l-89 7q-43 -5 -43 -28q0 -16 25 -22.5t110 -17.5q13 -2 20 -3q37 -5 56.5 -8t53 -10t52.5 -16.5t39 -23.5t29.5 -34.5t9.5 -46.5zM385 329
q0 46 -25.5 70.5t-95.5 24.5q-68 0 -94 -24.5t-26 -70.5q0 -51 25.5 -77.5t95.5 -26.5q68 0 94 26.5t26 77.5z" />
    <glyph glyph-name="h" unicode="h" horiz-adv-x="565" 
d="M521 0h-106v287q0 78 -24 110t-101 32t-104 -32.5t-27 -109.5l-2 -287h-105v707h105v-259q38 71 163 71q117 0 159 -60t42 -182v-277z" />
    <glyph glyph-name="i" unicode="i" horiz-adv-x="206" 
d="M180 635q0 -36 -19 -50t-57 -14q-39 0 -59 14t-20 50q0 37 20 51t59 14q38 0 57 -14t19 -51zM156 0h-106v512h106v-512z" />
    <glyph glyph-name="j" unicode="j" horiz-adv-x="202" 
d="M182 635q0 -36 -20 -50.5t-57 -14.5q-78 0 -78 65q0 36 20 50t58 14t57.5 -13.5t19.5 -50.5zM157 512v-558q0 -80 -34.5 -118.5t-112.5 -38.5q-24 0 -64 5v89q32 -4 41 -4q37 0 50.5 16t13.5 49v560h106z" />
    <glyph glyph-name="k" unicode="k" horiz-adv-x="521" 
d="M521 0h-146l-216 230v-230h-107v707h107v-396l193 201h149l-261 -242z" />
    <glyph glyph-name="l" unicode="l" horiz-adv-x="211" 
d="M159 0h-107v707h107v-707z" />
    <glyph glyph-name="m" unicode="m" horiz-adv-x="804" 
d="M760 0h-108v307q0 61 -19 91.5t-76 30.5q-56 0 -76.5 -30.5t-20.5 -91.5v-307h-108v307q0 61 -19 91.5t-76 30.5q-56 0 -77 -31t-21 -91v-307h-107v512h58l24 -66q14 30 53 51.5t104 21.5q106 0 141 -79q13 32 53 55.5t106 23.5q51 0 85.5 -16.5t52 -48t24.5 -68t7 -85.5
v-301z" />
    <glyph glyph-name="n" unicode="n" horiz-adv-x="566" 
d="M522 0h-106v285q0 76 -24.5 110.5t-100.5 34.5q-77 0 -104.5 -35t-27.5 -110v-285h-107v512h58l24 -72q15 32 61.5 55.5t125.5 23.5q61 0 102 -17t62 -51t29 -75t8 -100v-276z" />
    <glyph glyph-name="o" unicode="o" horiz-adv-x="572" 
d="M540 256q0 -55 -12 -99.5t-40 -83t-79.5 -59.5t-123.5 -21q-253 0 -253 263q0 54 12 98.5t39 83t79 60t124 21.5t123.5 -21.5t79 -60t39.5 -83t12 -98.5zM431 256q0 82 -31 129t-114 47q-82 0 -113.5 -47t-31.5 -129q0 -83 31 -129.5t113 -46.5q83 0 114.5 46t31.5 130z
" />
    <glyph glyph-name="p" unicode="p" horiz-adv-x="580" 
d="M547 255q0 -262 -216 -262q-129 0 -174 70v-263h-105v712h58l22 -73q19 32 66.5 56t130.5 24q61 0 104.5 -21t67.5 -59t35 -83t11 -101zM440 255q0 87 -29.5 131.5t-110.5 44.5q-83 0 -113.5 -44t-30.5 -132q0 -86 28.5 -129.5t112.5 -43.5q83 0 113 43.5t30 129.5z" />
    <glyph glyph-name="q" unicode="q" horiz-adv-x="577" 
d="M527 -200h-106v263q-43 -70 -172 -70q-218 0 -218 262q0 56 11 101t35.5 83t68.5 59t105 21q81 0 129.5 -24t65.5 -56l23 73h58v-712zM422 255q0 88 -29.5 132t-112.5 44q-81 0 -111 -44.5t-30 -131.5q0 -86 30 -129.5t112 -43.5q84 0 112.5 43.5t28.5 129.5z" />
    <glyph glyph-name="r" unicode="r" horiz-adv-x="321" 
d="M316 424q-5 0 -15 1t-14 1q-75 0 -101.5 -36t-26.5 -106v-284h-107v512h57l25 -71q15 31 56 54.5t109 23.5h17v-95z" />
    <glyph glyph-name="s" unicode="s" horiz-adv-x="524" 
d="M497 148q0 -63 -56 -109t-169 -46q-128 0 -187.5 49.5t-59.5 148.5h105q0 -113 140 -113q62 0 91 19t31 45q1 30 -35.5 47t-89 26t-105.5 21.5t-90 43.5t-37 82q0 72 54 114.5t170 42.5q225 0 225 -191h-100q-3 54 -32 81t-96 27q-60 0 -87.5 -18.5t-27.5 -46.5
q0 -27 36.5 -42t89 -24.5t105 -23t89 -47t36.5 -86.5z" />
    <glyph glyph-name="t" unicode="t" horiz-adv-x="337" 
d="M320 426h-131v-279q0 -39 26 -54t105 -11v-86q-128 -8 -184 26.5t-56 124.5v279h-73v64l73 22v128h106v-128h134v-86z" />
    <glyph glyph-name="u" unicode="u" horiz-adv-x="566" 
d="M515 0h-59l-22 74q-17 -33 -63.5 -57t-124.5 -24q-62 0 -102.5 16t-62 49.5t-29.5 73.5t-8 99v281h105v-289q0 -75 24.5 -107.5t102.5 -32.5q77 0 104 35t27 110v284h108v-512z" />
    <glyph glyph-name="v" unicode="v" horiz-adv-x="536" 
d="M541 512l-217 -512h-122l-207 512h117l152 -422l156 422h121z" />
    <glyph glyph-name="w" unicode="w" horiz-adv-x="806" 
d="M796 512l-154 -512h-123l-122 401l-120 -401h-117l-150 512h116l98 -412l121 412h105l127 -415l104 415h115z" />
    <glyph glyph-name="x" unicode="x" horiz-adv-x="540" 
d="M541 0h-129l-142 206l-143 -206h-130l215 265l-201 247h123l135 -186l137 186h120l-200 -247z" />
    <glyph glyph-name="y" unicode="y" horiz-adv-x="572" 
d="M520 512v-516q0 -42 -9.5 -74.5t-33.5 -63.5t-73.5 -48t-122.5 -17q-132 0 -184.5 46t-52.5 129h106q2 -23 7 -37.5t18 -28.5t39.5 -20.5t67.5 -6.5q78 0 105 30.5t27 85.5v67q-42 -65 -163 -65q-117 0 -159 59t-42 180v280h105v-289q0 -75 24.5 -107.5t101.5 -32.5
t105 35t28 110v284h106z" />
    <glyph glyph-name="z" unicode="z" horiz-adv-x="495" 
d="M461 0h-427v91l301 334h-300v87h416v-92l-306 -333h316v-87z" />
    <glyph glyph-name="braceleft" unicode="{" horiz-adv-x="376" 
d="M364 -69h-228v353h-107v80h107v342h228v-81h-132v-613h132v-81z" />
    <glyph glyph-name="bar" unicode="|" horiz-adv-x="211" 
d="M154 -66h-97v773h97v-773z" />
    <glyph glyph-name="braceright" unicode="}" horiz-adv-x="376" 
d="M347 284h-107v-353h-228v81h132v613h-132v81h228v-342h107v-80z" />
    <glyph glyph-name="asciitilde" unicode="~" horiz-adv-x="570" 
d="M550 379q0 -63 -32 -96.5t-111 -33.5q-40 0 -112.5 37.5t-93.5 37.5q-60 0 -60 -65h-100q-1 12 -1 18q0 58 34.5 98.5t110.5 40.5q39 0 108 -37.5t96 -37.5q60 0 60 65h100q1 -17 1 -27z" />
    <glyph glyph-name="nbspace" unicode="&#xa0;" horiz-adv-x="225" 
 />
    <glyph glyph-name="exclamdown" unicode="&#xa1;" horiz-adv-x="192" 
d="M175 583q0 -37 -20 -51t-58 -14t-57.5 14t-19.5 51q0 36 19.5 50t57.5 14t58 -14t20 -50zM145 0h-96v262l15 208h65l16 -208v-262z" />
    <glyph glyph-name="cent" unicode="&#xa2;" 
d="M406 200h109q0 -87 -44.5 -140t-133.5 -64v-127h-96v126q-209 24 -209 260q0 239 209 260v122h96v-122q88 -13 133 -67.5t45 -140.5h-109q-5 62 -34 92.5t-90 30.5q-141 0 -141 -174q0 -81 32 -126.5t111 -45.5q61 0 88.5 29t33.5 87z" />
    <glyph glyph-name="sterling" unicode="&#xa3;" horiz-adv-x="579" 
d="M540 0h-513v90q51 0 70.5 37t19.5 108v42h-87v89h87v75q0 206 213 206q121 0 165.5 -52t44.5 -159h-104q0 66 -23 92t-83 26q-56 0 -80 -27t-24 -86v-75h273v-89h-273v-42q0 -47 -12 -83t-24 -49l-11 -13h361v-90z" />
    <glyph glyph-name="yen" unicode="&#xa5;" horiz-adv-x="607" 
d="M609 640l-207 -356h174v-88h-220v-196h-115v196h-212v88h167l-197 356h116l186 -350l193 350h115z" />
    <glyph glyph-name="brokenbar" unicode="&#xa6;" horiz-adv-x="211" 
d="M154 381h-97v326h97v-326zM154 -66h-97v333h97v-333z" />
    <glyph glyph-name="section" unicode="&#xa7;" horiz-adv-x="511" 
d="M495 271q0 -73 -74 -113q54 -33 54 -93q0 -72 -54.5 -115t-169.5 -43q-225 0 -225 190h100q3 -53 32 -79.5t96 -26.5q60 0 87.5 18.5t27.5 46.5q0 23 -26.5 38t-66 22t-86 19t-86 26.5t-66 45.5t-26.5 76q0 72 73 113q-53 34 -53 94q0 72 54.5 114.5t169.5 42.5
q225 0 225 -190h-100q-3 53 -32 79.5t-95 26.5q-115 0 -115 -65q0 -23 26.5 -38t66 -22t85.5 -18.5t85.5 -26t66 -46t26.5 -76.5zM390 271q0 18 -11.5 30.5t-36 21t-47 14t-60 12.5t-59.5 12q-30 -13 -44.5 -35.5t-14.5 -42.5q0 -18 11.5 -30.5t36 -21t46.5 -14t59.5 -12.5
t59.5 -12q31 12 45.5 34.5t14.5 43.5z" />
    <glyph glyph-name="dieresis" unicode="&#xa8;" horiz-adv-x="522" 
d="M432 622q0 -33 -17 -45.5t-51 -12.5q-37 0 -54.5 12.5t-17.5 45.5q0 34 17.5 46t54.5 12q35 0 51.5 -12t16.5 -46zM231 622q0 -33 -17 -45.5t-52 -12.5q-36 0 -53.5 12.5t-17.5 45.5q0 34 17 46t54 12q35 0 52 -12t17 -46z" />
    <glyph glyph-name="copyright" unicode="&#xa9;" horiz-adv-x="911" 
d="M865 320q0 -71 -11 -129.5t-40 -112t-74 -90t-117.5 -58t-167.5 -21.5t-167 21.5t-117.5 58t-74 90t-40 112.5t-11.5 130q0 410 410 410q118 0 200.5 -32t127 -90.5t63.5 -128.5t19 -160zM766 320q0 74 -14.5 130t-48.5 102t-96.5 70t-151.5 24q-88 0 -150.5 -24.5
t-96.5 -70t-49 -102t-15 -129.5q0 -74 14.5 -130t49 -102t96.5 -70t151 -24t151.5 24t96.5 70t48.5 102t14.5 130zM647 279q0 -89 -47 -136.5t-140 -47.5q-111 0 -160 61t-49 160q0 101 48.5 162.5t157.5 61.5q93 0 141.5 -49t48.5 -137h-92q-4 54 -28 78t-71 24
q-112 0 -112 -137q0 -139 112 -139q47 0 71 23.5t28 75.5h92z" />
    <glyph glyph-name="ordfeminine" unicode="&#xaa;" horiz-adv-x="551" 
d="M510 127h-58l-22 78q-20 -34 -72.5 -58.5t-126.5 -24.5q-88 0 -144 39.5t-56 116.5q0 70 49 103.5t164 46.5l161 19q-2 59 -31 87t-102 28q-68 0 -94.5 -25.5t-26.5 -76.5h-104q0 88 49 137.5t175 49.5q76 0 125 -15.5t73 -48t32.5 -69.5t8.5 -94v-293zM405 348v15
l-145 -16q-67 -7 -93 -22t-26 -45q0 -75 115 -75q70 0 109.5 37.5t39.5 105.5z" />
    <glyph glyph-name="guillemotleft" unicode="&#xab;" horiz-adv-x="474" 
d="M447 42h-106l-104 213l104 214h106l-103 -214zM237 42h-106l-105 213l105 214h106l-103 -214z" />
    <glyph glyph-name="uni00AD" unicode="&#xad;" horiz-adv-x="374" 
d="M334 214h-294v88h294v-88z" />
    <glyph glyph-name="registered" unicode="&#xae;" horiz-adv-x="911" 
d="M865 320q0 -71 -11 -129.5t-40 -112t-74 -90t-117.5 -58t-167.5 -21.5t-167 21.5t-117.5 58t-74 90t-40 112.5t-11.5 130q0 70 11.5 128.5t40 112t74 90t118 58t166.5 21.5q118 0 200.5 -32t127 -90.5t63.5 -128.5t19 -160zM766 320q0 74 -14.5 130t-48.5 102t-96.5 70
t-151.5 24q-88 0 -150.5 -24.5t-96.5 -70t-49 -102t-15 -129.5q0 -74 14.5 -130t49 -102t96.5 -70t151 -24t151.5 24t96.5 70t48.5 102t14.5 130zM649 107h-128l-144 153v-153h-91v422h165q61 0 101.5 -12.5t58.5 -35t24.5 -43t6.5 -46.5q0 -120 -141 -120h-37zM550 392
q0 64 -95 64h-78v-126h79q31 0 51.5 5.5t29 16t11 19.5t2.5 21z" />
    <glyph glyph-name="macron" unicode="&#xaf;" horiz-adv-x="522" 
d="M481 577h-439v88h439v-88z" />
    <glyph glyph-name="degree" unicode="&#xb0;" horiz-adv-x="517" 
d="M486 417q0 -50 -9 -87.5t-32.5 -72t-70.5 -52.5t-117 -18q-69 0 -115.5 18t-69.5 52.5t-31.5 72t-8.5 87.5t9 87t32 71.5t70 53t116 18.5t116 -18.5t70 -53t32 -71.5t9 -87zM391 417q0 67 -27.5 103.5t-104.5 36.5q-75 0 -103.5 -37t-28.5 -103q0 -67 28 -104t102 -37
q77 0 105.5 36.5t28.5 104.5z" />
    <glyph glyph-name="acute" unicode="&#xb4;" horiz-adv-x="551" 
d="M491 710v-89l-431 -70v89z" />
    <glyph glyph-name="mu" unicode="&#xb5;" horiz-adv-x="565" 
d="M521 512v-512h-59l-22 74q-42 -81 -142 -81q-101 0 -140 72v-265h-106v712h106v-279q0 -76 28 -113t101 -37t100.5 37t27.5 113v279h106z" />
    <glyph glyph-name="mu" unicode="&#x3bc;" horiz-adv-x="565" 
d="M521 512v-512h-59l-22 74q-42 -81 -142 -81q-101 0 -140 72v-265h-106v712h106v-279q0 -76 28 -113t101 -37t100.5 37t27.5 113v279h106z" />
    <glyph glyph-name="paragraph" unicode="&#xb6;" horiz-adv-x="390" 
d="M324 640v-640h-110l1 399h-59q-60 0 -92 34t-32 86t32.5 86.5t90.5 34.5h169z" />
    <glyph glyph-name="periodcentered" unicode="&#xb7;" horiz-adv-x="205" 
d="M177 321q0 -35 -18.5 -48.5t-56.5 -13.5t-57 13.5t-19 48.5q0 37 18.5 50.5t57.5 13.5q38 0 56.5 -13.5t18.5 -50.5z" />
    <glyph glyph-name="cedilla" unicode="&#xb8;" horiz-adv-x="560" 
d="M359 0q0 -88 -37 -121.5t-107 -33.5h-164v86h150q61 0 61 69h97z" />
    <glyph glyph-name="ordmasculine" unicode="&#xba;" horiz-adv-x="571" 
d="M540 386q0 -263 -255 -263q-253 0 -253 263q0 261 254 261q58 0 102.5 -14.5t73 -38.5t46.5 -58t25 -70.5t7 -79.5zM431 386q0 39 -6 68t-21 54t-44.5 38.5t-73.5 13.5q-83 0 -114 -46t-31 -128q0 -83 31 -129t113 -46q83 0 114.5 45.5t31.5 129.5z" />
    <glyph glyph-name="guillemotright" unicode="&#xbb;" horiz-adv-x="474" 
d="M447 255l-103 -213h-107l103 213l-103 214h107zM237 255l-103 -213h-108l104 213l-104 214h108z" />
    <glyph glyph-name="questiondown" unicode="&#xbf;" horiz-adv-x="562" 
d="M65 201q0 55 22 96t56.5 62t69 31t67.5 10h19l16 68h91v-150h-80q-153 -3 -153 -117q0 -51 31 -83t96 -32q140 0 140 132h106q0 -103 -58.5 -164t-183.5 -61q-121 0 -180 57.5t-59 150.5zM283 582q0 37 19.5 51t56.5 14q38 0 58.5 -14t20.5 -51q0 -36 -20 -49.5
t-59 -13.5q-38 0 -57 13.5t-19 49.5z" />
    <glyph glyph-name="Agrave" unicode="&#xc0;" horiz-adv-x="631" 
d="M634 0h-117l-43 125h-314l-46 -125h-115l246 640h149zM446 205l-129 364l-130 -364h259zM532 677l-430 69v87l430 -67v-89z" />
    <glyph glyph-name="Aacute" unicode="&#xc1;" horiz-adv-x="631" 
d="M634 0h-117l-43 125h-314l-46 -125h-115l246 640h149zM446 205l-129 364l-130 -364h259zM531 837v-89l-431 -70v89z" />
    <glyph glyph-name="Acircumflex" unicode="&#xc2;" horiz-adv-x="631" 
d="M634 0h-117l-43 125h-314l-46 -125h-115l246 640h149zM446 205l-129 364l-130 -364h259zM317 848l216 -84v-88l-216 83l-216 -83v88z" />
    <glyph glyph-name="Atilde" unicode="&#xc3;" horiz-adv-x="631" 
d="M634 0h-117l-43 125h-314l-46 -125h-115l246 640h149zM446 205l-129 364l-130 -364h259zM558 811q0 -62 -27 -94.5t-102 -32.5q-49 0 -117.5 36t-91.5 36q-32 0 -44.5 -15.5t-14.5 -48.5h-80q-1 12 -1 19q0 131 131 131q47 0 111.5 -35t95.5 -35q37 0 47.5 14.5
t10.5 47.5h80q2 -13 2 -23z" />
    <glyph glyph-name="Adieresis" unicode="&#xc4;" horiz-adv-x="631" 
d="M634 0h-117l-43 125h-314l-46 -125h-115l246 640h149zM446 205l-129 364l-130 -364h259zM492 749q0 -33 -17 -45.5t-51 -12.5q-37 0 -54.5 12.5t-17.5 45.5q0 34 17.5 46t54.5 12q35 0 51.5 -12t16.5 -46zM291 749q0 -33 -17 -45.5t-52 -12.5q-36 0 -53.5 12.5
t-17.5 45.5q0 34 17 46t54 12q35 0 52 -12t17 -46z" />
    <glyph glyph-name="Aring" unicode="&#xc5;" horiz-adv-x="631" 
d="M634 0h-117l-43 125h-314l-46 -125h-115l246 640h149zM446 205l-129 364l-130 -364h259zM467 796q0 -62 -34 -89.5t-115 -27.5q-84 0 -117 27t-33 90q0 62 33 88.5t117 26.5q82 0 115.5 -26.5t33.5 -88.5zM386 796q0 26 -16 34t-52 8q-37 0 -53 -8t-16 -34
q0 -27 16 -35.5t53 -8.5q35 0 51.5 9t16.5 35z" />
    <glyph glyph-name="AE" unicode="&#xc6;" horiz-adv-x="975" 
d="M937 0h-445v125h-296l-87 -125h-117l438 640h507v-91h-335v-178h305v-89h-305v-191h335v-91zM492 205v347l-242 -347h242z" />
    <glyph glyph-name="Ccedilla" unicode="&#xc7;" horiz-adv-x="667" 
d="M629 246q0 -105 -57.5 -172.5t-182.5 -78.5q-2 -82 -39 -113.5t-105 -31.5h-131v86h117q57 0 60 60q-72 7 -122 35t-76 74t-37 97.5t-11 117.5q0 56 7.5 101.5t28 88.5t53 72.5t85 47t121.5 17.5q148 0 218.5 -71t70.5 -180h-113q-11 160 -176 160q-55 0 -92 -18
t-56.5 -52t-27 -73.5t-7.5 -92.5t7.5 -92.5t27 -73.5t56.5 -52t92 -18q166 0 176 162h113z" />
    <glyph glyph-name="Egrave" unicode="&#xc8;" 
d="M511 0h-445v640h445v-90h-336v-179h305v-89h-305v-192h336v-90zM503 678l-430 69v87l430 -67v-89z" />
    <glyph glyph-name="Eacute" unicode="&#xc9;" 
d="M511 0h-445v640h445v-90h-336v-179h305v-89h-305v-192h336v-90zM507 838v-89l-431 -70v89z" />
    <glyph glyph-name="Ecircumflex" unicode="&#xca;" 
d="M511 0h-445v640h445v-90h-336v-179h305v-89h-305v-192h336v-90zM287 849l216 -84v-88l-216 83l-216 -83v88z" />
    <glyph glyph-name="Edieresis" unicode="&#xcb;" 
d="M511 0h-445v640h445v-90h-336v-179h305v-89h-305v-192h336v-90zM456 750q0 -33 -17 -45.5t-51 -12.5q-37 0 -54.5 12.5t-17.5 45.5q0 34 17.5 46t54.5 12q35 0 51.5 -12t16.5 -46zM255 750q0 -33 -17 -45.5t-52 -12.5q-36 0 -53.5 12.5t-17.5 45.5q0 34 17 46t54 12
q35 0 52 -12t17 -46z" />
    <glyph glyph-name="Igrave" unicode="&#xcc;" horiz-adv-x="241" 
d="M209 684l-175 52v89l175 -53v-88zM176 0h-110v640h110v-640z" />
    <glyph glyph-name="Iacute" unicode="&#xcd;" horiz-adv-x="241" 
d="M209 736l-175 -52v88l175 53v-89zM176 0h-110v640h110v-640z" />
    <glyph glyph-name="Icircumflex" unicode="&#xce;" horiz-adv-x="240" 
d="M120 845l110 -68v-97l-110 69l-111 -69v97zM176 0h-110v640h110v-640z" />
    <glyph glyph-name="Idieresis" unicode="&#xcf;" horiz-adv-x="240" 
d="M176 0h-110v640h110v-640zM291 752q0 -33 -17 -45.5t-51 -12.5q-37 0 -54.5 12.5t-17.5 45.5q0 34 17.5 46t54.5 12q35 0 51.5 -12t16.5 -46zM90 752q0 -33 -17 -45.5t-52 -12.5q-36 0 -53.5 12.5t-17.5 45.5q0 34 17 46t54 12q35 0 52 -12t17 -46z" />
    <glyph glyph-name="Eth" unicode="&#xd0;" horiz-adv-x="667" 
d="M624 324q0 -154 -76.5 -239t-221.5 -85h-234v281h-67v88h67v271h245q143 0 215 -80.5t72 -235.5zM516 325q0 127 -47.5 176t-156.5 49h-110v-181h128v-88h-128v-191h104q110 0 160 54t50 181z" />
    <glyph glyph-name="Ntilde" unicode="&#xd1;" horiz-adv-x="716" 
d="M650 0h-136l-335 500v-500h-110v640h141l330 -496v496h110v-640zM603 826q0 -62 -27 -94.5t-102 -32.5q-49 0 -117.5 36t-91.5 36q-32 0 -44.5 -15.5t-14.5 -48.5h-80q-1 12 -1 19q0 131 131 131q47 0 111.5 -35t95.5 -35q37 0 47.5 14.5t10.5 47.5h80q2 -13 2 -23z" />
    <glyph glyph-name="Ograve" unicode="&#xd2;" horiz-adv-x="700" 
d="M655 319q0 -70 -13.5 -124.5t-46 -102.5t-94.5 -73.5t-151 -25.5t-151 26t-94.5 73.5t-46 102.5t-13.5 126t14 126t46.5 102t94 72.5t150.5 25.5t151 -25.5t94.5 -73t46 -102.5t13.5 -127zM544 319q0 54 -8 94t-28.5 74t-60 51.5t-97.5 17.5t-97 -17.5t-59.5 -51.5
t-28.5 -73.5t-8 -92.5q0 -112 41.5 -174.5t151.5 -62.5q111 0 152.5 62t41.5 173zM566 682l-430 69v87l430 -67v-89z" />
    <glyph glyph-name="Oacute" unicode="&#xd3;" horiz-adv-x="700" 
d="M655 319q0 -70 -13.5 -124.5t-46 -102.5t-94.5 -73.5t-151 -25.5t-151 26t-94.5 73.5t-46 102.5t-13.5 126t14 126t46.5 102t94 72.5t150.5 25.5t151 -25.5t94.5 -73t46 -102.5t13.5 -127zM544 319q0 54 -8 94t-28.5 74t-60 51.5t-97.5 17.5t-97 -17.5t-59.5 -51.5
t-28.5 -73.5t-8 -92.5q0 -112 41.5 -174.5t151.5 -62.5q111 0 152.5 62t41.5 173zM563 841v-89l-431 -70v89z" />
    <glyph glyph-name="Ocircumflex" unicode="&#xd4;" horiz-adv-x="700" 
d="M655 319q0 -70 -13.5 -124.5t-46 -102.5t-94.5 -73.5t-151 -25.5t-151 26t-94.5 73.5t-46 102.5t-13.5 126t14 126t46.5 102t94 72.5t150.5 25.5t151 -25.5t94.5 -73t46 -102.5t13.5 -127zM544 319q0 54 -8 94t-28.5 74t-60 51.5t-97.5 17.5t-97 -17.5t-59.5 -51.5
t-28.5 -73.5t-8 -92.5q0 -112 41.5 -174.5t151.5 -62.5q111 0 152.5 62t41.5 173zM355 855l216 -84v-88l-216 83l-216 -83v88z" />
    <glyph glyph-name="Otilde" unicode="&#xd5;" horiz-adv-x="700" 
d="M655 319q0 -70 -13.5 -124.5t-46 -102.5t-94.5 -73.5t-151 -25.5t-151 26t-94.5 73.5t-46 102.5t-13.5 126t14 126t46.5 102t94 72.5t150.5 25.5t151 -25.5t94.5 -73t46 -102.5t13.5 -127zM544 319q0 54 -8 94t-28.5 74t-60 51.5t-97.5 17.5t-97 -17.5t-59.5 -51.5
t-28.5 -73.5t-8 -92.5q0 -112 41.5 -174.5t151.5 -62.5q111 0 152.5 62t41.5 173zM595 820q0 -62 -27 -94.5t-102 -32.5q-49 0 -117.5 36t-91.5 36q-32 0 -44.5 -15.5t-14.5 -48.5h-80q-1 12 -1 19q0 131 131 131q47 0 111.5 -35t95.5 -35q37 0 47.5 14.5t10.5 47.5h80
q2 -13 2 -23z" />
    <glyph glyph-name="Odieresis" unicode="&#xd6;" horiz-adv-x="700" 
d="M655 319q0 -70 -13.5 -124.5t-46 -102.5t-94.5 -73.5t-151 -25.5t-151 26t-94.5 73.5t-46 102.5t-13.5 126t14 126t46.5 102t94 72.5t150.5 25.5t151 -25.5t94.5 -73t46 -102.5t13.5 -127zM544 319q0 54 -8 94t-28.5 74t-60 51.5t-97.5 17.5t-97 -17.5t-59.5 -51.5
t-28.5 -73.5t-8 -92.5q0 -112 41.5 -174.5t151.5 -62.5q111 0 152.5 62t41.5 173zM523 754q0 -33 -17 -45.5t-51 -12.5q-37 0 -54.5 12.5t-17.5 45.5q0 34 17.5 46t54.5 12q35 0 51.5 -12t16.5 -46zM322 754q0 -33 -17 -45.5t-52 -12.5q-36 0 -53.5 12.5t-17.5 45.5
q0 34 17 46t54 12q35 0 52 -12t17 -46z" />
    <glyph glyph-name="multiply" unicode="&#xd7;" horiz-adv-x="540" 
d="M541 0h-129l-142 206l-143 -206h-130l215 265l-201 247h123l135 -186l137 186h120l-200 -247z" />
    <glyph glyph-name="Oslash" unicode="&#xd8;" horiz-adv-x="701" 
d="M551 710l-37 -95q141 -69 141 -296q0 -70 -13.5 -124.5t-46 -102.5t-94.5 -73.5t-151 -25.5q-36 0 -73 5l-26 -68h-102l37 95q-141 69 -141 296q0 71 14 126t46.5 102t94 72.5t150.5 25.5q40 0 74 -6l26 69h101zM544 319q0 148 -67 200l-166 -433q24 -2 39 -2
q111 0 152.5 62t41.5 173zM157 321q0 -147 66 -200l167 432q-20 3 -40 3q-58 0 -97 -17.5t-59.5 -51.5t-28.5 -73.5t-8 -92.5z" />
    <glyph glyph-name="Ugrave" unicode="&#xd9;" horiz-adv-x="654" 
d="M600 640v-353q0 -157 -63.5 -225.5t-209.5 -68.5t-209 68.5t-63 225.5v353h111v-348q0 -106 34 -154t127 -48q94 0 128 48t34 154v348h111zM542 691l-430 69v87l430 -67v-89z" />
    <glyph glyph-name="Uacute" unicode="&#xda;" horiz-adv-x="654" 
d="M600 640v-353q0 -157 -63.5 -225.5t-209.5 -68.5t-209 68.5t-63 225.5v353h111v-348q0 -106 34 -154t127 -48q94 0 128 48t34 154v348h111zM537 845v-89l-431 -70v89z" />
    <glyph glyph-name="Ucircumflex" unicode="&#xdb;" horiz-adv-x="654" 
d="M600 640v-353q0 -157 -63.5 -225.5t-209.5 -68.5t-209 68.5t-63 225.5v353h111v-348q0 -106 34 -154t127 -48q94 0 128 48t34 154v348h111zM326 855l216 -84v-88l-216 83l-216 -83v88z" />
    <glyph glyph-name="Udieresis" unicode="&#xdc;" horiz-adv-x="654" 
d="M600 640v-353q0 -157 -63.5 -225.5t-209.5 -68.5t-209 68.5t-63 225.5v353h111v-348q0 -106 34 -154t127 -48q94 0 128 48t34 154v348h111zM499 754q0 -33 -17 -45.5t-51 -12.5q-37 0 -54.5 12.5t-17.5 45.5q0 34 17.5 46t54.5 12q35 0 51.5 -12t16.5 -46zM298 754
q0 -33 -17 -45.5t-52 -12.5q-36 0 -53.5 12.5t-17.5 45.5q0 34 17 46t54 12q35 0 52 -12t17 -46z" />
    <glyph glyph-name="Yacute" unicode="&#xdd;" horiz-adv-x="607" 
d="M609 640l-253 -446v-194h-115v194l-242 446h116l185 -361l194 361h115zM518 844v-89l-431 -70v89z" />
    <glyph glyph-name="Thorn" unicode="&#xde;" horiz-adv-x="605" 
d="M564 327q0 -32 -3 -55t-17.5 -53t-40.5 -48.5t-76.5 -32t-121.5 -13.5h-129v-125h-110v640h110v-104h121q70 0 121.5 -14t78.5 -33.5t43 -50t20 -55t4 -56.5zM451 327q0 24 -5 42t-19 37t-46 29.5t-80 10.5h-125v-234h128q47 0 78.5 10t45.5 28.5t18.5 35.5t4.5 41z" />
    <glyph glyph-name="germandbls" unicode="&#xdf;" horiz-adv-x="736" 
d="M721 149q0 -64 -56.5 -110t-168.5 -46q-128 0 -187.5 51t-59.5 152h105q0 -112 140 -112q120 0 122 58q1 26 -25 43t-65.5 24.5t-86.5 18.5t-87 24t-66.5 42t-26.5 72q0 71 50.5 110.5t139.5 38.5v20q0 46 -26.5 63.5t-107.5 17.5q-72 0 -98.5 -19t-26.5 -77v-520h-108
v429h-71v61l71 22q1 118 50 160.5t174 42.5q133 0 190.5 -39.5t57.5 -125.5v-119q-6 0 -24 0.5t-29 0.5q-136 0 -136 -60q0 -22 26.5 -36.5t66 -21t85.5 -18t85.5 -25.5t66 -45.5t26.5 -76.5z" />
    <glyph glyph-name="agrave" unicode="&#xe0;" horiz-adv-x="549" 
d="M510 0h-58l-22 77q-20 -34 -73.5 -59t-127.5 -25q-87 0 -142.5 40t-55.5 117q0 70 51 105t162 46l161 16q-2 60 -31 88.5t-102 28.5q-68 0 -94.5 -25.5t-26.5 -76.5l-104 -1q0 89 49 138.5t175 49.5q61 0 105 -11t69.5 -29t40.5 -48.5t19.5 -62.5t4.5 -77v-291zM405 220
v16l-145 -16q-66 -7 -92.5 -23t-26.5 -46q0 -35 29.5 -54.5t85.5 -19.5q70 0 109.5 38t39.5 105zM490 550l-430 69v87l430 -67v-89z" />
    <glyph glyph-name="aacute" unicode="&#xe1;" horiz-adv-x="549" 
d="M510 0h-58l-22 77q-20 -34 -73.5 -59t-127.5 -25q-87 0 -142.5 40t-55.5 117q0 70 51 105t162 46l161 16q-2 60 -31 88.5t-102 28.5q-68 0 -94.5 -25.5t-26.5 -76.5l-104 -1q0 89 49 138.5t175 49.5q61 0 105 -11t69.5 -29t40.5 -48.5t19.5 -62.5t4.5 -77v-291zM405 220
v16l-145 -16q-66 -7 -92.5 -23t-26.5 -46q0 -35 29.5 -54.5t85.5 -19.5q70 0 109.5 38t39.5 105zM490 710v-89l-431 -70v89z" />
    <glyph glyph-name="acircumflex" unicode="&#xe2;" horiz-adv-x="549" 
d="M510 0h-58l-22 77q-20 -34 -73.5 -59t-127.5 -25q-87 0 -142.5 40t-55.5 117q0 70 51 105t162 46l161 16q-2 60 -31 88.5t-102 28.5q-68 0 -94.5 -25.5t-26.5 -76.5l-104 -1q0 89 49 138.5t175 49.5q61 0 105 -11t69.5 -29t40.5 -48.5t19.5 -62.5t4.5 -77v-291zM405 220
v16l-145 -16q-66 -7 -92.5 -23t-26.5 -46q0 -35 29.5 -54.5t85.5 -19.5q70 0 109.5 38t39.5 105zM275 721l216 -84v-88l-216 83l-216 -83v88z" />
    <glyph glyph-name="atilde" unicode="&#xe3;" horiz-adv-x="549" 
d="M510 0h-58l-22 77q-20 -34 -73.5 -59t-127.5 -25q-87 0 -142.5 40t-55.5 117q0 70 51 105t162 46l161 16q-2 60 -31 88.5t-102 28.5q-68 0 -94.5 -25.5t-26.5 -76.5l-104 -1q0 89 49 138.5t175 49.5q61 0 105 -11t69.5 -29t40.5 -48.5t19.5 -62.5t4.5 -77v-291zM405 220
v16l-145 -16q-66 -7 -92.5 -23t-26.5 -46q0 -35 29.5 -54.5t85.5 -19.5q70 0 109.5 38t39.5 105zM514 689q0 -62 -27 -94.5t-102 -32.5q-49 0 -117.5 36t-91.5 36q-32 0 -44.5 -15.5t-14.5 -48.5h-80q-1 12 -1 19q0 131 131 131q47 0 111.5 -35t95.5 -35q37 0 47.5 14.5
t10.5 47.5h80q2 -13 2 -23z" />
    <glyph glyph-name="adieresis" unicode="&#xe4;" horiz-adv-x="549" 
d="M510 0h-58l-22 77q-20 -34 -73.5 -59t-127.5 -25q-87 0 -142.5 40t-55.5 117q0 70 51 105t162 46l161 16q-2 60 -31 88.5t-102 28.5q-68 0 -94.5 -25.5t-26.5 -76.5l-104 -1q0 89 49 138.5t175 49.5q61 0 105 -11t69.5 -29t40.5 -48.5t19.5 -62.5t4.5 -77v-291zM405 220
v16l-145 -16q-66 -7 -92.5 -23t-26.5 -46q0 -35 29.5 -54.5t85.5 -19.5q70 0 109.5 38t39.5 105zM446 622q0 -33 -17 -45.5t-51 -12.5q-37 0 -54.5 12.5t-17.5 45.5q0 34 17.5 46t54.5 12q35 0 51.5 -12t16.5 -46zM245 622q0 -33 -17 -45.5t-52 -12.5q-36 0 -53.5 12.5
t-17.5 45.5q0 34 17 46t54 12q35 0 52 -12t17 -46z" />
    <glyph glyph-name="aring" unicode="&#xe5;" horiz-adv-x="549" 
d="M510 0h-58l-22 77q-20 -34 -73.5 -59t-127.5 -25q-87 0 -142.5 40t-55.5 117q0 70 51 105t162 46l161 16q-2 60 -31 88.5t-102 28.5q-68 0 -94.5 -25.5t-26.5 -76.5l-104 -1q0 89 49 138.5t175 49.5q61 0 105 -11t69.5 -29t40.5 -48.5t19.5 -62.5t4.5 -77v-291zM405 220
v16l-145 -16q-66 -7 -92.5 -23t-26.5 -46q0 -35 29.5 -54.5t85.5 -19.5q70 0 109.5 38t39.5 105zM424 669q0 -62 -34 -89.5t-115 -27.5q-84 0 -117 27t-33 90q0 62 33 88.5t117 26.5q82 0 115.5 -26.5t33.5 -88.5zM343 669q0 26 -16 34t-52 8q-37 0 -53 -8t-16 -34
q0 -27 16 -35.5t53 -8.5q35 0 51.5 9t16.5 35z" />
    <glyph glyph-name="ae" unicode="&#xe6;" horiz-adv-x="921" 
d="M887 160q-7 -73 -62 -119.5t-168 -46.5q-152 0 -211 100q-33 -56 -82 -78t-133 -22q-88 0 -144 39.5t-56 116.5q0 70 49.5 104t163.5 47l161 14q-2 60 -31 89.5t-102 29.5q-68 0 -94.5 -25.5t-26.5 -76.5h-104q0 89 49 138t175 49q135 0 194 -71q61 71 191 71
q120 0 175.5 -70.5t55.5 -186.5q0 -16 -2 -46h-374q9 -136 143 -136q101 0 121 80h112zM405 220v16l-145 -16q-66 -7 -92.5 -23t-26.5 -46q0 -36 29.5 -55.5t85.5 -19.5q70 0 109.5 38.5t39.5 105.5zM775 304q0 59 -30 96t-99 37q-125 0 -134 -136h263v3z" />
    <glyph glyph-name="ccedilla" unicode="&#xe7;" 
d="M515 200q0 -86 -44 -139t-132 -65q-1 -83 -38 -114.5t-106 -31.5h-115v86h102q57 0 60 59q-210 22 -210 260q0 55 12 99.5t39.5 83t79 60t122.5 21.5q114 0 172 -56.5t58 -155.5h-109q-6 62 -34.5 93.5t-89.5 31.5q-141 0 -141 -176q0 -81 32 -126.5t111 -45.5
q61 0 88.5 29t33.5 87h109z" />
    <glyph glyph-name="egrave" unicode="&#xe8;" horiz-adv-x="555" 
d="M521 157q-8 -73 -62.5 -118.5t-167.5 -45.5q-257 0 -257 264q0 262 256 262q55 0 97.5 -16.5t69 -44.5t42 -67.5t20 -83t0.5 -93.5h-374q9 -139 142 -139q102 0 122 82h112zM409 301q1 58 -30 96.5t-99 38.5q-125 0 -134 -137h263q1 0 0 1q1 1 0 1zM500 550l-430 69v87
l430 -67v-89z" />
    <glyph glyph-name="eacute" unicode="&#xe9;" horiz-adv-x="555" 
d="M521 157q-8 -73 -62.5 -118.5t-167.5 -45.5q-257 0 -257 264q0 262 256 262q55 0 97.5 -16.5t69 -44.5t42 -67.5t20 -83t0.5 -93.5h-374q9 -139 142 -139q102 0 122 82h112zM409 301q1 58 -30 96.5t-99 38.5q-125 0 -134 -137h263q1 0 0 1q1 1 0 1zM499 710v-89l-431 -70
v89z" />
    <glyph glyph-name="ecircumflex" unicode="&#xea;" horiz-adv-x="555" 
d="M521 157q-8 -73 -62.5 -118.5t-167.5 -45.5q-257 0 -257 264q0 262 256 262q55 0 97.5 -16.5t69 -44.5t42 -67.5t20 -83t0.5 -93.5h-374q9 -139 142 -139q102 0 122 82h112zM409 301q1 58 -30 96.5t-99 38.5q-125 0 -134 -137h263q1 0 0 1q1 1 0 1zM283 721l216 -84v-88
l-216 83l-216 -83v88z" />
    <glyph glyph-name="edieresis" unicode="&#xeb;" horiz-adv-x="555" 
d="M521 157q-8 -73 -62.5 -118.5t-167.5 -45.5q-257 0 -257 264q0 262 256 262q55 0 97.5 -16.5t69 -44.5t42 -67.5t20 -83t0.5 -93.5h-374q9 -139 142 -139q102 0 122 82h112zM409 301q1 58 -30 96.5t-99 38.5q-125 0 -134 -137h263q1 0 0 1q1 1 0 1zM457 622
q0 -33 -17 -45.5t-51 -12.5q-37 0 -54.5 12.5t-17.5 45.5q0 34 17.5 46t54.5 12q35 0 51.5 -12t16.5 -46zM256 622q0 -33 -17 -45.5t-52 -12.5q-36 0 -53.5 12.5t-17.5 45.5q0 34 17 46t54 12q35 0 52 -12t17 -46z" />
    <glyph glyph-name="igrave" unicode="&#xec;" horiz-adv-x="206" 
d="M194 557l-175 49v89l175 -49v-89zM157 0h-106v512h106v-512z" />
    <glyph glyph-name="iacute" unicode="&#xed;" horiz-adv-x="206" 
d="M194 606l-175 -49v89l175 49v-89zM157 0h-106v512h106v-512z" />
    <glyph glyph-name="icircumflex" unicode="&#xee;" horiz-adv-x="206" 
d="M102 720l110 -68v-97l-110 69l-111 -69v97zM157 0h-106v512h106v-512z" />
    <glyph glyph-name="idieresis" unicode="&#xef;" horiz-adv-x="206" 
d="M157 0h-106v512h106v-512zM276 622q0 -33 -17 -45.5t-51 -12.5q-37 0 -54.5 12.5t-17.5 45.5q0 34 17.5 46t54.5 12q35 0 51.5 -12t16.5 -46zM75 622q0 -33 -17 -45.5t-52 -12.5q-36 0 -53.5 12.5t-17.5 45.5q0 34 17 46t54 12q35 0 52 -12t17 -46z" />
    <glyph glyph-name="eth" unicode="&#xf0;" horiz-adv-x="564" 
d="M270 707h126q21 -29 23 -32l106 30v-68l-69 -20q76 -139 76 -341q0 -283 -256 -283q-72 0 -123 22.5t-77.5 61.5t-38 82.5t-11.5 96.5q0 52 11 96t36 83t72.5 61.5t112.5 22.5q107 0 153 -74q-17 76 -55 144l-111 -31v68l74 21q-15 20 -49 60zM424 256q0 84 -32.5 129.5
t-111.5 45.5t-112.5 -45.5t-33.5 -129.5t33 -130t111 -46q79 0 112.5 45.5t33.5 130.5z" />
    <glyph glyph-name="ntilde" unicode="&#xf1;" horiz-adv-x="566" 
d="M522 0h-106v285q0 76 -24.5 110.5t-100.5 34.5q-77 0 -104.5 -35t-27.5 -110v-285h-107v512h58l24 -72q15 32 61.5 55.5t125.5 23.5q61 0 102 -17t62 -51t29 -75t8 -100v-276zM523 684q0 -62 -27 -94.5t-102 -32.5q-49 0 -117.5 36t-91.5 36q-32 0 -44.5 -15.5
t-14.5 -48.5h-80q-1 12 -1 19q0 131 131 131q47 0 111.5 -35t95.5 -35q37 0 47.5 14.5t10.5 47.5h80q2 -13 2 -23z" />
    <glyph glyph-name="ograve" unicode="&#xf2;" horiz-adv-x="572" 
d="M540 256q0 -55 -12 -99.5t-40 -83t-79.5 -59.5t-123.5 -21q-253 0 -253 263q0 54 12 98.5t39 83t79 60t124 21.5t123.5 -21.5t79 -60t39.5 -83t12 -98.5zM431 256q0 82 -31 129t-114 47q-82 0 -113.5 -47t-31.5 -129q0 -83 31 -129.5t113 -46.5q83 0 114.5 46t31.5 130z
M501 550l-430 69v87l430 -67v-89z" />
    <glyph glyph-name="oacute" unicode="&#xf3;" horiz-adv-x="572" 
d="M540 256q0 -55 -12 -99.5t-40 -83t-79.5 -59.5t-123.5 -21q-253 0 -253 263q0 54 12 98.5t39 83t79 60t124 21.5t123.5 -21.5t79 -60t39.5 -83t12 -98.5zM431 256q0 82 -31 129t-114 47q-82 0 -113.5 -47t-31.5 -129q0 -83 31 -129.5t113 -46.5q83 0 114.5 46t31.5 130z
M501 710v-89l-431 -70v89z" />
    <glyph glyph-name="ocircumflex" unicode="&#xf4;" horiz-adv-x="572" 
d="M540 256q0 -55 -12 -99.5t-40 -83t-79.5 -59.5t-123.5 -21q-253 0 -253 263q0 54 12 98.5t39 83t79 60t124 21.5t123.5 -21.5t79 -60t39.5 -83t12 -98.5zM431 256q0 82 -31 129t-114 47q-82 0 -113.5 -47t-31.5 -129q0 -83 31 -129.5t113 -46.5q83 0 114.5 46t31.5 130z
M286 721l216 -84v-88l-216 83l-216 -83v88z" />
    <glyph glyph-name="otilde" unicode="&#xf5;" horiz-adv-x="572" 
d="M540 256q0 -55 -12 -99.5t-40 -83t-79.5 -59.5t-123.5 -21q-253 0 -253 263q0 54 12 98.5t39 83t79 60t124 21.5t123.5 -21.5t79 -60t39.5 -83t12 -98.5zM431 256q0 82 -31 129t-114 47q-82 0 -113.5 -47t-31.5 -129q0 -83 31 -129.5t113 -46.5q83 0 114.5 46t31.5 130z
M525 684q0 -62 -27 -94.5t-102 -32.5q-49 0 -117.5 36t-91.5 36q-32 0 -44.5 -15.5t-14.5 -48.5h-80q-1 12 -1 19q0 131 131 131q47 0 111.5 -35t95.5 -35q37 0 47.5 14.5t10.5 47.5h80q2 -13 2 -23z" />
    <glyph glyph-name="odieresis" unicode="&#xf6;" horiz-adv-x="572" 
d="M540 256q0 -55 -12 -99.5t-40 -83t-79.5 -59.5t-123.5 -21q-253 0 -253 263q0 54 12 98.5t39 83t79 60t124 21.5t123.5 -21.5t79 -60t39.5 -83t12 -98.5zM431 256q0 82 -31 129t-114 47q-82 0 -113.5 -47t-31.5 -129q0 -83 31 -129.5t113 -46.5q83 0 114.5 46t31.5 130z
M456 622q0 -33 -17 -45.5t-51 -12.5q-37 0 -54.5 12.5t-17.5 45.5q0 34 17.5 46t54.5 12q35 0 51.5 -12t16.5 -46zM255 622q0 -33 -17 -45.5t-52 -12.5q-36 0 -53.5 12.5t-17.5 45.5q0 34 17 46t54 12q35 0 52 -12t17 -46z" />
    <glyph glyph-name="divide" unicode="&#xf7;" horiz-adv-x="635" 
d="M385 460q0 -33 -17 -45.5t-52 -12.5q-36 0 -53.5 12.5t-17.5 45.5t17.5 46t53.5 13q35 0 52 -13t17 -46zM595 211h-555v90h555v-90zM385 52q0 -33 -17 -46t-52 -13q-36 0 -53.5 13t-17.5 46q0 34 17.5 46t53.5 12q35 0 52 -12t17 -46z" />
    <glyph glyph-name="oslash" unicode="&#xf8;" horiz-adv-x="572" 
d="M460 577l-30 -89q110 -62 110 -232q0 -55 -12 -99.5t-40 -83t-79.5 -59.5t-123.5 -21q-15 0 -23 1l-20 -60h-105l27 79q-132 53 -132 243q0 54 12 98.5t39 83t79 60t124 21.5q26 0 49 -3l21 61h104zM141 256q0 -114 54 -152l111 327q-6 1 -20 1q-82 0 -113.5 -47
t-31.5 -129zM431 256q0 94 -35 135l-105 -311q79 2 109.5 48t30.5 128z" />
    <glyph glyph-name="ugrave" unicode="&#xf9;" horiz-adv-x="566" 
d="M515 0h-59l-22 74q-17 -33 -63.5 -57t-124.5 -24q-62 0 -102.5 16t-62 49.5t-29.5 73.5t-8 99v281h105v-289q0 -75 24.5 -107.5t102.5 -32.5q77 0 104 35t27 110v284h108v-512zM497 550l-430 69v87l430 -67v-89z" />
    <glyph glyph-name="uacute" unicode="&#xfa;" horiz-adv-x="566" 
d="M515 0h-59l-22 74q-17 -33 -63.5 -57t-124.5 -24q-62 0 -102.5 16t-62 49.5t-29.5 73.5t-8 99v281h105v-289q0 -75 24.5 -107.5t102.5 -32.5q77 0 104 35t27 110v284h108v-512zM498 710v-89l-431 -70v89z" />
    <glyph glyph-name="ucircumflex" unicode="&#xfb;" horiz-adv-x="566" 
d="M515 0h-59l-22 74q-17 -33 -63.5 -57t-124.5 -24q-62 0 -102.5 16t-62 49.5t-29.5 73.5t-8 99v281h105v-289q0 -75 24.5 -107.5t102.5 -32.5q77 0 104 35t27 110v284h108v-512zM282 721l216 -84v-88l-216 83l-216 -83v88z" />
    <glyph glyph-name="udieresis" unicode="&#xfc;" horiz-adv-x="566" 
d="M515 0h-59l-22 74q-17 -33 -63.5 -57t-124.5 -24q-62 0 -102.5 16t-62 49.5t-29.5 73.5t-8 99v281h105v-289q0 -75 24.5 -107.5t102.5 -32.5q77 0 104 35t27 110v284h108v-512zM453 622q0 -33 -17 -45.5t-51 -12.5q-37 0 -54.5 12.5t-17.5 45.5q0 34 17.5 46t54.5 12
q35 0 51.5 -12t16.5 -46zM252 622q0 -33 -17 -45.5t-52 -12.5q-36 0 -53.5 12.5t-17.5 45.5q0 34 17 46t54 12q35 0 52 -12t17 -46z" />
    <glyph glyph-name="yacute" unicode="&#xfd;" horiz-adv-x="572" 
d="M520 512v-516q0 -42 -9.5 -74.5t-33.5 -63.5t-73.5 -48t-122.5 -17q-132 0 -184.5 46t-52.5 129h106q2 -23 7 -37.5t18 -28.5t39.5 -20.5t67.5 -6.5q78 0 105 30.5t27 85.5v67q-42 -65 -163 -65q-117 0 -159 59t-42 180v280h105v-289q0 -75 24.5 -107.5t101.5 -32.5
t105 35t28 110v284h106zM501 710v-89l-431 -70v89z" />
    <glyph glyph-name="thorn" unicode="&#xfe;" horiz-adv-x="580" 
d="M547 255q0 -262 -216 -262q-130 0 -174 68v-261h-105v889h105v-240q44 70 174 70q216 0 216 -264zM440 255q0 86 -30 130.5t-111 44.5q-84 0 -113.5 -44.5t-29.5 -130.5t28.5 -129.5t112.5 -43.5q83 0 113 43.5t30 129.5z" />
    <glyph glyph-name="ydieresis" unicode="&#xff;" horiz-adv-x="572" 
d="M520 512v-516q0 -42 -9.5 -74.5t-33.5 -63.5t-73.5 -48t-122.5 -17q-132 0 -184.5 46t-52.5 129h106q2 -23 7 -37.5t18 -28.5t39.5 -20.5t67.5 -6.5q78 0 105 30.5t27 85.5v67q-42 -65 -163 -65q-117 0 -159 59t-42 180v280h105v-289q0 -75 24.5 -107.5t101.5 -32.5
t105 35t28 110v284h106zM456 622q0 -33 -17 -45.5t-51 -12.5q-37 0 -54.5 12.5t-17.5 45.5q0 34 17.5 46t54.5 12q35 0 51.5 -12t16.5 -46zM255 622q0 -33 -17 -45.5t-52 -12.5q-36 0 -53.5 12.5t-17.5 45.5q0 34 17 46t54 12q35 0 52 -12t17 -46z" />
    <glyph glyph-name="Amacron" unicode="&#x100;" horiz-adv-x="631" 
d="M634 0h-117l-43 125h-314l-46 -125h-115l246 640h149zM446 205l-129 364l-130 -364h259zM537 704h-439v88h439v-88z" />
    <glyph glyph-name="amacron" unicode="&#x101;" horiz-adv-x="549" 
d="M510 0h-58l-22 77q-20 -34 -73.5 -59t-127.5 -25q-87 0 -142.5 40t-55.5 117q0 70 51 105t162 46l161 16q-2 60 -31 88.5t-102 28.5q-68 0 -94.5 -25.5t-26.5 -76.5l-104 -1q0 89 49 138.5t175 49.5q61 0 105 -11t69.5 -29t40.5 -48.5t19.5 -62.5t4.5 -77v-291zM405 220
v16l-145 -16q-66 -7 -92.5 -23t-26.5 -46q0 -35 29.5 -54.5t85.5 -19.5q70 0 109.5 38t39.5 105zM495 577h-439v88h439v-88z" />
    <glyph glyph-name="Abreve" unicode="&#x102;" horiz-adv-x="631" 
d="M634 0h-117l-43 125h-314l-46 -125h-115l246 640h149zM446 205l-129 364l-130 -364h259zM512 847q0 -87 -37 -120t-107 -33h-111q-67 0 -101 35.5t-34 117.5h93q0 -70 60 -70h82q61 0 61 70h94z" />
    <glyph glyph-name="abreve" unicode="&#x103;" horiz-adv-x="549" 
d="M510 0h-58l-22 77q-20 -34 -73.5 -59t-127.5 -25q-87 0 -142.5 40t-55.5 117q0 70 51 105t162 46l161 16q-2 60 -31 88.5t-102 28.5q-68 0 -94.5 -25.5t-26.5 -76.5l-104 -1q0 89 49 138.5t175 49.5q61 0 105 -11t69.5 -29t40.5 -48.5t19.5 -62.5t4.5 -77v-291zM405 220
v16l-145 -16q-66 -7 -92.5 -23t-26.5 -46q0 -35 29.5 -54.5t85.5 -19.5q70 0 109.5 38t39.5 105zM470 720q0 -87 -37 -120t-107 -33h-111q-67 0 -101 35.5t-34 117.5h93q0 -70 60 -70h82q61 0 61 70h94z" />
    <glyph glyph-name="Aogonek" unicode="&#x104;" horiz-adv-x="631" 
d="M634 -183h-39q-94 0 -94 74q0 36 28 74l-55 160h-314l-46 -125h-115l246 640h149l240 -640q-45 -37 -45 -69q0 -30 45 -30v-84zM446 205l-129 364l-130 -364h259z" />
    <glyph glyph-name="aogonek" unicode="&#x105;" horiz-adv-x="549" 
d="M510 -183h-39q-94 0 -94 74q0 28 18 58.5t44 53.5l11 10l-20 64q-20 -33 -72.5 -57.5t-126.5 -24.5q-88 0 -144 39t-56 116q0 70 49.5 104t163.5 47l161 19q-2 59 -31 87t-102 28q-68 0 -94.5 -26t-26.5 -77h-104q0 89 49 138.5t175 49.5q61 0 105 -11t69.5 -29.5
t40.5 -49t19.5 -62.5t4.5 -77v-291q-20 -17 -32.5 -38t-12.5 -36q0 -30 45 -30v-79zM405 220v16l-145 -16q-66 -7 -92.5 -23t-26.5 -46q0 -35 29.5 -54.5t85.5 -19.5q70 0 109.5 38t39.5 105z" />
    <glyph glyph-name="Cacute" unicode="&#x106;" horiz-adv-x="667" 
d="M629 246q0 -114 -69.5 -183.5t-219.5 -69.5q-86 0 -146 25.5t-91.5 73t-44.5 102.5t-13 126q0 56 7.5 101.5t28 88.5t53 72.5t85 47t121.5 17.5q148 0 218.5 -71t70.5 -180h-113q-11 160 -176 160q-55 0 -92 -18t-56.5 -52t-27 -73.5t-7.5 -92.5t7.5 -92.5t27 -73.5
t56.5 -51.5t92 -17.5q166 0 176 161h113zM548 836v-89l-431 -70v89z" />
    <glyph glyph-name="cacute" unicode="&#x107;" 
d="M515 201q0 -98 -57 -153t-171 -55q-255 0 -255 263q0 55 12 99.5t39.5 82.5t79 59.5t122.5 21.5q114 0 172 -56t58 -155h-109q-6 62 -34.5 93t-89.5 31q-141 0 -141 -175q0 -81 32 -126.5t111 -45.5q61 0 88.5 29t33.5 87h109zM490 710v-89l-431 -70v89z" />
    <glyph glyph-name="Ccircumflex" unicode="&#x108;" horiz-adv-x="667" 
d="M629 246q0 -114 -69.5 -183.5t-219.5 -69.5q-86 0 -146 25.5t-91.5 73t-44.5 102.5t-13 126q0 56 7.5 101.5t28 88.5t53 72.5t85 47t121.5 17.5q148 0 218.5 -71t70.5 -180h-113q-11 160 -176 160q-55 0 -92 -18t-56.5 -52t-27 -73.5t-7.5 -92.5t7.5 -92.5t27 -73.5
t56.5 -51.5t92 -17.5q166 0 176 161h113zM340 847l216 -84v-88l-216 83l-216 -83v88z" />
    <glyph glyph-name="ccircumflex" unicode="&#x109;" 
d="M515 201q0 -98 -57 -153t-171 -55q-255 0 -255 263q0 55 12 99.5t39.5 82.5t79 59.5t122.5 21.5q114 0 172 -56t58 -155h-109q-6 62 -34.5 93t-89.5 31q-141 0 -141 -175q0 -81 32 -126.5t111 -45.5q61 0 88.5 29t33.5 87h109zM283 721l216 -84v-88l-216 83l-216 -83v88z
" />
    <glyph glyph-name="Cdotaccent" unicode="&#x10a;" horiz-adv-x="667" 
d="M629 246q0 -114 -69.5 -183.5t-219.5 -69.5q-86 0 -146 25.5t-91.5 73t-44.5 102.5t-13 126q0 56 7.5 101.5t28 88.5t53 72.5t85 47t121.5 17.5q148 0 218.5 -71t70.5 -180h-113q-11 160 -176 160q-55 0 -92 -18t-56.5 -52t-27 -73.5t-7.5 -92.5t7.5 -92.5t27 -73.5
t56.5 -51.5t92 -17.5q166 0 176 161h113zM425 748q0 -38 -16 -50.5t-68 -12.5q-54 0 -69.5 12t-15.5 51q0 42 15 54.5t70 12.5q54 0 69 -12.5t15 -54.5z" />
    <glyph glyph-name="cdotaccent" unicode="&#x10b;" 
d="M515 201q0 -98 -57 -153t-171 -55q-255 0 -255 263q0 55 12 99.5t39.5 82.5t79 59.5t122.5 21.5q114 0 172 -56t58 -155h-109q-6 62 -34.5 93t-89.5 31q-141 0 -141 -175q0 -81 32 -126.5t111 -45.5q61 0 88.5 29t33.5 87h109zM361 622q0 -38 -16 -50.5t-68 -12.5
q-54 0 -69.5 12t-15.5 51q0 42 15 54.5t70 12.5q54 0 69 -12.5t15 -54.5z" />
    <glyph glyph-name="Ccaron" unicode="&#x10c;" horiz-adv-x="667" 
d="M629 246q0 -114 -69.5 -183.5t-219.5 -69.5q-86 0 -146 25.5t-91.5 73t-44.5 102.5t-13 126q0 56 7.5 101.5t28 88.5t53 72.5t85 47t121.5 17.5q148 0 218.5 -71t70.5 -180h-113q-11 160 -176 160q-55 0 -92 -18t-56.5 -52t-27 -73.5t-7.5 -92.5t7.5 -92.5t27 -73.5
t56.5 -51.5t92 -17.5q166 0 176 161h113zM556 758l-216 -83l-216 83v89l216 -84l216 84v-89z" />
    <glyph glyph-name="ccaron" unicode="&#x10d;" 
d="M515 201q0 -98 -57 -153t-171 -55q-255 0 -255 263q0 55 12 99.5t39.5 82.5t79 59.5t122.5 21.5q114 0 172 -56t58 -155h-109q-6 62 -34.5 93t-89.5 31q-141 0 -141 -175q0 -81 32 -126.5t111 -45.5q61 0 88.5 29t33.5 87h109zM497 632l-216 -83l-216 83v89l216 -84
l216 84v-89z" />
    <glyph glyph-name="Dcaron" unicode="&#x10e;" horiz-adv-x="646" 
d="M602 324q0 -153 -78.5 -238.5t-223.5 -85.5h-234v640h244q144 0 218 -81t74 -235zM495 325q-1 126 -50.5 175.5t-158.5 49.5h-111v-460h105q109 0 162 54.5t53 180.5zM511 758l-216 -83l-216 83v89l216 -84l216 84v-89z" />
    <glyph glyph-name="dcaron" unicode="&#x10f;" horiz-adv-x="728" 
d="M529 0h-58l-24 73q-16 -32 -65 -56t-131 -24q-61 0 -105 21t-68 58.5t-35 82.5t-11 101q0 263 218 263q129 0 174 -70v258h105v-707zM425 256q0 85 -29.5 129t-113.5 44q-82 0 -111.5 -43.5t-29.5 -129.5t29.5 -130.5t110.5 -44.5q83 0 113.5 44t30.5 131zM716 563
l-23 -169h-69l9 126q-68 0 -68 64q0 36 19.5 49.5t58.5 13.5q42 0 60.5 -18.5t12.5 -65.5z" />
    <glyph glyph-name="Dcroat" unicode="&#x110;" horiz-adv-x="667" 
d="M624 324q0 -154 -76.5 -239t-221.5 -85h-234v281h-67v88h67v271h245q143 0 215 -80.5t72 -235.5zM516 325q0 127 -47.5 176t-156.5 49h-110v-181h128v-88h-128v-191h104q110 0 160 54t50 181z" />
    <glyph glyph-name="dcroat" unicode="&#x111;" horiz-adv-x="581" 
d="M424 660v47h105v-47h38v-81h-38v-579h-58l-24 73q-16 -32 -65 -56t-131 -24q-61 0 -105 21t-68 58.5t-35 82.5t-11 101q0 263 218 263q129 0 174 -70v130h-134v81h134zM425 256q0 85 -29.5 129t-113.5 44q-82 0 -111.5 -43.5t-29.5 -129.5t29.5 -130.5t110.5 -44.5
q83 0 113.5 44t30.5 131z" />
    <glyph glyph-name="Emacron" unicode="&#x112;" 
d="M511 0h-445v640h445v-90h-336v-179h305v-89h-305v-192h336v-90zM505 705h-439v88h439v-88z" />
    <glyph glyph-name="emacron" unicode="&#x113;" horiz-adv-x="555" 
d="M521 157q-8 -73 -62.5 -118.5t-167.5 -45.5q-257 0 -257 264q0 262 256 262q55 0 97.5 -16.5t69 -44.5t42 -67.5t20 -83t0.5 -93.5h-374q9 -139 142 -139q102 0 122 82h112zM409 301q1 58 -30 96.5t-99 38.5q-125 0 -134 -137h263q1 0 0 1q1 1 0 1zM504 577h-439v88h439
v-88z" />
    <glyph glyph-name="Ebreve" unicode="&#x114;" 
d="M511 0h-445v640h445v-90h-336v-179h305v-89h-305v-192h336v-90zM482 848q0 -87 -37 -120t-107 -33h-111q-67 0 -101 35.5t-34 117.5h93q0 -70 60 -70h82q61 0 61 70h94z" />
    <glyph glyph-name="ebreve" unicode="&#x115;" horiz-adv-x="555" 
d="M521 157q-8 -73 -62.5 -118.5t-167.5 -45.5q-257 0 -257 264q0 262 256 262q55 0 97.5 -16.5t69 -44.5t42 -67.5t20 -83t0.5 -93.5h-374q9 -139 142 -139q102 0 122 82h112zM409 301q1 58 -30 96.5t-99 38.5q-125 0 -134 -137h263q1 0 0 1q1 1 0 1zM477 720
q0 -87 -37 -120t-107 -33h-111q-67 0 -101 35.5t-34 117.5h93q0 -70 60 -70h82q61 0 61 70h94z" />
    <glyph glyph-name="Edotaccent" unicode="&#x116;" 
d="M511 0h-445v640h445v-90h-336v-179h305v-89h-305v-192h336v-90zM386 748q0 -38 -16 -50.5t-68 -12.5q-54 0 -69.5 12t-15.5 51q0 42 15 54.5t70 12.5q54 0 69 -12.5t15 -54.5z" />
    <glyph glyph-name="edotaccent" unicode="&#x117;" horiz-adv-x="555" 
d="M521 157q-8 -73 -62.5 -118.5t-167.5 -45.5q-257 0 -257 264q0 262 256 262q55 0 97.5 -16.5t69 -44.5t42 -67.5t20 -83t0.5 -93.5h-374q9 -139 142 -139q102 0 122 82h112zM409 301q1 58 -30 96.5t-99 38.5q-125 0 -134 -137h263q1 0 0 1q1 1 0 1zM373 622
q0 -38 -16 -50.5t-68 -12.5q-54 0 -69.5 12t-15.5 51q0 42 15 54.5t70 12.5q54 0 69 -12.5t15 -54.5z" />
    <glyph glyph-name="Eogonek" unicode="&#x118;" 
d="M511 -183h-39q-93 0 -93 74q0 58 56 109h-369v640h445v-90h-336v-179h305v-89h-305v-192h336v-90q-20 -17 -32.5 -39t-12.5 -37q0 -30 45 -30v-77z" />
    <glyph glyph-name="eogonek" unicode="&#x119;" horiz-adv-x="555" 
d="M472 -130h-38q-94 0 -94 74q0 30 16 54q-33 -5 -65 -5q-257 0 -257 264q0 262 256 262q55 0 97.5 -16.5t69 -44.5t42 -67.5t20 -83t0.5 -93.5h-374q9 -137 142 -137q102 0 122 80h112q-7 -67 -64 -118q-30 -26 -30 -55q0 -30 45 -30v-84zM409 299q1 59 -29.5 98t-99.5 39
q-125 0 -134 -137h263z" />
    <glyph glyph-name="Ecaron" unicode="&#x11a;" 
d="M511 0h-445v640h445v-90h-336v-179h305v-89h-305v-192h336v-90zM505 760l-216 -83l-216 83v89l216 -84l216 84v-89z" />
    <glyph glyph-name="ecaron" unicode="&#x11b;" horiz-adv-x="555" 
d="M521 157q-8 -73 -62.5 -118.5t-167.5 -45.5q-257 0 -257 264q0 262 256 262q55 0 97.5 -16.5t69 -44.5t42 -67.5t20 -83t0.5 -93.5h-374q9 -139 142 -139q102 0 122 82h112zM409 301q1 58 -30 96.5t-99 38.5q-125 0 -134 -137h263q1 0 0 1q1 1 0 1zM507 632l-216 -83
l-216 83v89l216 -84l216 84v-89z" />
    <glyph glyph-name="Gcircumflex" unicode="&#x11c;" horiz-adv-x="687" 
d="M629 0h-63l-27 99q-63 -106 -205 -106q-289 0 -289 327q0 56 7.5 101.5t28 88.5t53 72.5t85 47t121.5 17.5q147 0 216.5 -63t69.5 -159h-112q-13 131 -174 131q-55 0 -92 -18t-56.5 -52t-27 -73.5t-7.5 -92.5t8 -92.5t27.5 -73.5t56.5 -51.5t91 -17.5q89 0 134.5 48.5
t45.5 133.5h-188v90h297v-357zM345 847l216 -84v-88l-216 83l-216 -83v88z" />
    <glyph glyph-name="gcircumflex" unicode="&#x11d;" horiz-adv-x="534" 
d="M527 -58q0 -67 -57.5 -112t-194.5 -45q-146 0 -202 44.5t-56 135.5h112q4 -50 32.5 -72.5t115.5 -22.5q139 0 139 66q0 15 -8.5 25t-31 17.5t-39.5 11t-55 9.5q-17 3 -50.5 8t-52.5 8.5t-47 9.5t-43.5 13.5t-32 18t-24 25.5t-7.5 34q0 59 87 81q-77 39 -77 129
q0 42 10.5 73.5t37 58t77.5 40.5t126 14h225v-51l-72 -21q25 -13 41 -43t16 -72q0 -43 -10 -73.5t-34.5 -56t-71.5 -38t-116 -12.5l-89 7q-43 -5 -43 -28q0 -16 25 -22.5t110 -17.5q13 -2 20 -3q37 -5 56.5 -8t53 -10t52.5 -16.5t39 -23.5t29.5 -34.5t9.5 -46.5zM385 329
q0 46 -25.5 70.5t-95.5 24.5q-68 0 -94 -24.5t-26 -70.5q0 -51 25.5 -77.5t95.5 -26.5q68 0 94 26.5t26 77.5zM268 721l216 -84v-88l-216 83l-216 -83v88z" />
    <glyph glyph-name="Gbreve" unicode="&#x11e;" horiz-adv-x="687" 
d="M629 0h-63l-27 99q-63 -106 -205 -106q-289 0 -289 327q0 56 7.5 101.5t28 88.5t53 72.5t85 47t121.5 17.5q147 0 216.5 -63t69.5 -159h-112q-13 131 -174 131q-55 0 -92 -18t-56.5 -52t-27 -73.5t-7.5 -92.5t8 -92.5t27.5 -73.5t56.5 -51.5t91 -17.5q89 0 134.5 48.5
t45.5 133.5h-188v90h297v-357zM538 846q0 -87 -37 -120t-107 -33h-111q-67 0 -101 35.5t-34 117.5h93q0 -70 60 -70h82q61 0 61 70h94z" />
    <glyph glyph-name="gbreve" unicode="&#x11f;" horiz-adv-x="534" 
d="M527 -58q0 -67 -57.5 -112t-194.5 -45q-146 0 -202 44.5t-56 135.5h112q4 -50 32.5 -72.5t115.5 -22.5q139 0 139 66q0 15 -8.5 25t-31 17.5t-39.5 11t-55 9.5q-17 3 -50.5 8t-52.5 8.5t-47 9.5t-43.5 13.5t-32 18t-24 25.5t-7.5 34q0 59 87 81q-77 39 -77 129
q0 42 10.5 73.5t37 58t77.5 40.5t126 14h225v-51l-72 -21q25 -13 41 -43t16 -72q0 -43 -10 -73.5t-34.5 -56t-71.5 -38t-116 -12.5l-89 7q-43 -5 -43 -28q0 -16 25 -22.5t110 -17.5q13 -2 20 -3q37 -5 56.5 -8t53 -10t52.5 -16.5t39 -23.5t29.5 -34.5t9.5 -46.5zM385 329
q0 46 -25.5 70.5t-95.5 24.5q-68 0 -94 -24.5t-26 -70.5q0 -51 25.5 -77.5t95.5 -26.5q68 0 94 26.5t26 77.5zM462 720q0 -87 -37 -120t-107 -33h-111q-67 0 -101 35.5t-34 117.5h93q0 -70 60 -70h82q61 0 61 70h94z" />
    <glyph glyph-name="Gdotaccent" unicode="&#x120;" horiz-adv-x="687" 
d="M629 0h-63l-27 99q-63 -106 -205 -106q-289 0 -289 327q0 56 7.5 101.5t28 88.5t53 72.5t85 47t121.5 17.5q147 0 216.5 -63t69.5 -159h-112q-13 131 -174 131q-55 0 -92 -18t-56.5 -52t-27 -73.5t-7.5 -92.5t8 -92.5t27.5 -73.5t56.5 -51.5t91 -17.5q89 0 134.5 48.5
t45.5 133.5h-188v90h297v-357zM427 748q0 -38 -16 -50.5t-68 -12.5q-54 0 -69.5 12t-15.5 51q0 42 15 54.5t70 12.5q54 0 69 -12.5t15 -54.5z" />
    <glyph glyph-name="gdotaccent" unicode="&#x121;" horiz-adv-x="534" 
d="M527 -58q0 -67 -57.5 -112t-194.5 -45q-146 0 -202 44.5t-56 135.5h112q4 -50 32.5 -72.5t115.5 -22.5q139 0 139 66q0 15 -8.5 25t-31 17.5t-39.5 11t-55 9.5q-17 3 -50.5 8t-52.5 8.5t-47 9.5t-43.5 13.5t-32 18t-24 25.5t-7.5 34q0 59 87 81q-77 39 -77 129
q0 42 10.5 73.5t37 58t77.5 40.5t126 14h225v-51l-72 -21q25 -13 41 -43t16 -72q0 -43 -10 -73.5t-34.5 -56t-71.5 -38t-116 -12.5l-89 7q-43 -5 -43 -28q0 -16 25 -22.5t110 -17.5q13 -2 20 -3q37 -5 56.5 -8t53 -10t52.5 -16.5t39 -23.5t29.5 -34.5t9.5 -46.5zM385 329
q0 46 -25.5 70.5t-95.5 24.5q-68 0 -94 -24.5t-26 -70.5q0 -51 25.5 -77.5t95.5 -26.5q68 0 94 26.5t26 77.5zM351 622q0 -38 -16 -50.5t-68 -12.5q-54 0 -69.5 12t-15.5 51q0 42 15 54.5t70 12.5q54 0 69 -12.5t15 -54.5z" />
    <glyph glyph-name="Gcommaaccent" unicode="&#x122;" horiz-adv-x="687" 
d="M629 0h-63l-27 99q-63 -106 -205 -106q-289 0 -289 327q0 56 7.5 101.5t28 88.5t53 72.5t85 47t121.5 17.5q147 0 216.5 -63t69.5 -159h-112q-13 131 -174 131q-55 0 -92 -18t-56.5 -52t-27 -73.5t-7.5 -92.5t8 -92.5t27.5 -73.5t56.5 -51.5t91 -17.5q89 0 134.5 48.5
t45.5 133.5h-188v90h297v-357zM412 -109l-27 -144h-70l15 97q-28 0 -46.5 15t-18.5 44q0 64 74 64q39 0 59.5 -19.5t13.5 -56.5z" />
    <glyph glyph-name="gcommaaccent" unicode="&#x123;" horiz-adv-x="534" 
d="M527 -58q0 -67 -57.5 -112t-194.5 -45q-146 0 -202 44.5t-56 135.5h112q4 -50 32.5 -72.5t115.5 -22.5q139 0 139 66q0 15 -8.5 25t-31 17.5t-39.5 11t-55 9.5q-17 3 -50.5 8t-52.5 8.5t-47 9.5t-43.5 13.5t-32 18t-24 25.5t-7.5 34q0 59 87 81q-77 39 -77 129
q0 42 10.5 73.5t37 58t77.5 40.5t126 14h225v-51l-72 -21q25 -13 41 -43t16 -72q0 -43 -10 -73.5t-34.5 -56t-71.5 -38t-116 -12.5l-89 7q-43 -5 -43 -28q0 -16 25 -22.5t110 -17.5q13 -2 20 -3q37 -5 56.5 -8t53 -10t52.5 -16.5t39 -23.5t29.5 -34.5t9.5 -46.5zM385 329
q0 46 -25.5 70.5t-95.5 24.5q-68 0 -94 -24.5t-26 -70.5q0 -51 25.5 -77.5t95.5 -26.5q68 0 94 26.5t26 77.5zM199 623l27 144h70l-15 -97q28 0 46.5 -15t18.5 -44q0 -64 -74 -64q-39 0 -59.5 19.5t-13.5 56.5z" />
    <glyph glyph-name="Hcircumflex" unicode="&#x124;" horiz-adv-x="666" 
d="M601 0h-111v282h-314v-282h-110v640h110v-269h314v269h111v-640zM335 847l216 -84v-88l-216 83l-216 -83v88z" />
    <glyph glyph-name="hcircumflex" unicode="&#x125;" horiz-adv-x="565" 
d="M106 896l110 -67v-98l-110 69l-111 -69v98zM521 0h-106v287q0 78 -24 110t-101 32t-104 -32.5t-27 -109.5l-2 -287h-105v707h105v-259q38 71 163 71q117 0 159 -60t42 -182v-277z" />
    <glyph glyph-name="Hbar" unicode="&#x126;" horiz-adv-x="666" 
d="M600 0h-110v282h-314v-282h-110v459h-37v87h37v94h110v-94h314v94h110v-94h37v-87h-37v-459zM176 371h314v88h-314v-88z" />
    <glyph glyph-name="hbar" unicode="&#x127;" horiz-adv-x="565" 
d="M511 575h-354v-127q38 71 163 71q117 0 159 -60t42 -182v-277h-106v287q0 78 -24 110t-101 32t-104 -32.5t-27 -109.5v-287h-107v707h105v-65h354v-67z" />
    <glyph glyph-name="Itilde" unicode="&#x128;" horiz-adv-x="240" 
d="M226 824h79q1 -12 1 -18q0 -53 -27.5 -89t-82.5 -36q-40 0 -65 14t-41 28t-36 14q-37 0 -42 -42v-10h-78q-2 11 -2 17q0 53 27.5 89t82.5 36q40 0 65 -14t41.5 -28t36.5 -14q17 0 28.5 11.5t12.5 31.5v10zM176 0h-110v640h110v-640z" />
    <glyph glyph-name="itilde" unicode="&#x129;" horiz-adv-x="206" 
d="M209 691h78q2 -11 2 -17q0 -53 -27.5 -89t-82.5 -36q-40 0 -65 14t-41.5 28t-36.5 14q-17 0 -28.5 -11.5t-12.5 -31.5v-10h-79q-1 12 -1 18q0 53 27.5 89t82.5 36q40 0 65 -14t41 -28t36 -14q37 0 42 42v10zM157 0h-106v512h106v-512z" />
    <glyph glyph-name="Imacron" unicode="&#x12a;" horiz-adv-x="240" 
d="M237 706h-236v87h236v-87zM176 0h-110v640h110v-640z" />
    <glyph glyph-name="imacron" unicode="&#x12b;" horiz-adv-x="206" 
d="M157 0h-106v512h106v-512zM215 577h-235v88h235v-88z" />
    <glyph glyph-name="Ibreve" unicode="&#x12c;" horiz-adv-x="240" 
d="M280 835q0 -88 -37 -121.5t-107 -33.5h-36q-67 0 -101 36t-34 119h95q0 -69 60 -69l2 1q62 0 62 68h96zM176 0h-110v640h110v-640z" />
    <glyph glyph-name="ibreve" unicode="&#x12d;" horiz-adv-x="206" 
d="M262 702q0 -88 -37 -121.5t-106 -33.5h-37q-66 0 -100.5 36.5t-34.5 118.5h95q0 -68 60 -68h3q61 0 61 68h96zM157 0h-106v512h106v-512z" />
    <glyph glyph-name="Iogonek" unicode="&#x12e;" horiz-adv-x="240" 
d="M176 -183h-42q-94 0 -94 74q0 36 26 70v679h110v-640q-45 -38 -45 -69q0 -30 45 -30v-84z" />
    <glyph glyph-name="iogonek" unicode="&#x12f;" horiz-adv-x="206" 
d="M156 -183h-39q-93 0 -93 74q0 36 26 70v551h106v-512q-45 -38 -45 -69q0 -30 45 -30v-84zM180 635q0 -36 -19 -50t-57 -14q-39 0 -59 14t-20 50q0 37 20 51t59 14q38 0 57 -14t19 -51z" />
    <glyph glyph-name="Idotaccent" unicode="&#x130;" horiz-adv-x="240" 
d="M176 0h-110v640h110v-640zM205 748q0 -38 -16 -50.5t-68 -12.5q-54 0 -69.5 12t-15.5 51q0 42 15 54.5t70 12.5q54 0 69 -12.5t15 -54.5z" />
    <glyph glyph-name="dotlessi" unicode="&#x131;" horiz-adv-x="206" 
d="M157 0h-106v512h106v-512z" />
    <glyph glyph-name="Jcircumflex" unicode="&#x134;" horiz-adv-x="339" 
d="M219 832l122 -71v-94l-122 72l-124 -72v94zM274 640l1 -451q0 -104 -39 -149t-147 -45q-38 0 -89 6v88q28 -5 60 -5q61 0 82.5 24.5t21.5 75.5v456h110z" />
    <glyph glyph-name="jcircumflex" unicode="&#x135;" horiz-adv-x="202" 
d="M157 512l2 -558q0 -79 -35.5 -118t-113.5 -39q-24 0 -64 5v89q32 -4 41 -4q37 0 51 16t14 49v560h105zM105 715l116 -84v-88l-116 83l-116 -83v88z" />
    <glyph glyph-name="Kcommaaccent" unicode="&#x136;" horiz-adv-x="567" 
d="M599 0h-149l-274 299v-299h-110v640h110v-278l258 278h148l-310 -305zM369 -109l-27 -144h-70l15 97q-28 0 -46.5 15t-18.5 44q0 64 74 64q39 0 59.5 -19.5t13.5 -56.5z" />
    <glyph glyph-name="kcommaaccent" unicode="&#x137;" horiz-adv-x="521" 
d="M521 0h-146l-216 230v-230h-107v707h107v-396l193 201h149l-261 -242zM334 -109l-27 -144h-70l15 97q-28 0 -46.5 15t-18.5 44q0 64 74 64q39 0 59.5 -19.5t13.5 -56.5z" />
    <glyph glyph-name="kgreenlandic" unicode="&#x138;" horiz-adv-x="521" 
d="M521 0h-146l-216 230v-230h-107v512h107v-201l195 201h148l-262 -242z" />
    <glyph glyph-name="Lacute" unicode="&#x139;" horiz-adv-x="436" 
d="M212 825v-89l-178 -62v86zM422 0h-353v640h110v-550h243v-90z" />
    <glyph glyph-name="lacute" unicode="&#x13a;" horiz-adv-x="211" 
d="M227 892v-88l-243 -70v88zM159 0h-107v707h107v-707z" />
    <glyph glyph-name="Lcommaaccent" unicode="&#x13b;" horiz-adv-x="436" 
d="M422 0h-353v640h110v-550h243v-90zM312 -109l-27 -144h-70l15 97q-28 0 -46.5 15t-18.5 44q0 64 74 64q39 0 59.5 -19.5t13.5 -56.5z" />
    <glyph glyph-name="lcommaaccent" unicode="&#x13c;" horiz-adv-x="211" 
d="M159 0h-107v707h107v-707zM179 -109l-27 -144h-70l15 97q-28 0 -46.5 15t-18.5 44q0 64 74 64q39 0 59.5 -19.5t13.5 -56.5z" />
    <glyph glyph-name="Lcaron" unicode="&#x13d;" horiz-adv-x="436" 
d="M422 0h-353v640h110v-550h243v-90zM366 563l-23 -169h-69l9 126q-68 0 -68 64q0 36 19.5 49.5t58.5 13.5q42 0 60.5 -18.5t12.5 -65.5z" />
    <glyph glyph-name="lcaron" unicode="&#x13e;" horiz-adv-x="358" 
d="M159 0h-107v707h107v-707zM346 563l-23 -169h-69l9 126q-68 0 -68 64q0 36 19.5 49.5t58.5 13.5q42 0 60.5 -18.5t12.5 -65.5z" />
    <glyph glyph-name="Ldot" unicode="&#x13f;" horiz-adv-x="436" 
d="M422 0h-353v640h110v-550h243v-90zM388 321q0 -35 -18.5 -48.5t-56.5 -13.5t-57 13.5t-19 48.5q0 37 18.5 50.5t57.5 13.5q38 0 56.5 -13.5t18.5 -50.5z" />
    <glyph glyph-name="ldot" unicode="&#x140;" horiz-adv-x="362" 
d="M159 0h-107v707h107v-707zM348 321q0 -35 -18.5 -48.5t-56.5 -13.5t-57 13.5t-19 48.5q0 37 18.5 50.5t57.5 13.5q38 0 56.5 -13.5t18.5 -50.5z" />
    <glyph glyph-name="Lslash" unicode="&#x141;" horiz-adv-x="435" 
d="M1 261l68 31v348h110v-300l160 70v-88l-160 -69v-163h243v-90h-353v204l-68 -31v88z" />
    <glyph glyph-name="lslash" unicode="&#x142;" horiz-adv-x="267" 
d="M187 0h-106v187l-71 -27v82l71 26v439h106v-393l70 27v-82l-70 -27v-232z" />
    <glyph glyph-name="Nacute" unicode="&#x143;" horiz-adv-x="716" 
d="M650 0h-136l-335 500v-500h-110v640h141l330 -496v496h110v-640zM573 836v-89l-431 -70v89z" />
    <glyph glyph-name="nacute" unicode="&#x144;" horiz-adv-x="566" 
d="M522 0h-106v285q0 76 -24.5 110.5t-100.5 34.5q-77 0 -104.5 -35t-27.5 -110v-285h-107v512h58l24 -72q15 32 61.5 55.5t125.5 23.5q61 0 102 -17t62 -51t29 -75t8 -100v-276zM504 710v-89l-431 -70v89z" />
    <glyph glyph-name="Ncommaaccent" unicode="&#x145;" horiz-adv-x="716" 
d="M650 0h-136l-335 500v-500h-110v640h141l330 -496v496h110v-640zM430 -109l-27 -144h-70l15 97q-28 0 -46.5 15t-18.5 44q0 64 74 64q39 0 59.5 -19.5t13.5 -56.5z" />
    <glyph glyph-name="ncommaaccent" unicode="&#x146;" horiz-adv-x="566" 
d="M522 0h-106v285q0 76 -24.5 110.5t-100.5 34.5q-77 0 -104.5 -35t-27.5 -110v-285h-107v512h58l24 -72q15 32 61.5 55.5t125.5 23.5q61 0 102 -17t62 -51t29 -75t8 -100v-276zM362 -109l-27 -144h-70l15 97q-28 0 -46.5 15t-18.5 44q0 64 74 64q39 0 59.5 -19.5
t13.5 -56.5z" />
    <glyph glyph-name="Ncaron" unicode="&#x147;" horiz-adv-x="716" 
d="M650 0h-136l-335 500v-500h-110v640h141l330 -496v496h110v-640zM573 758l-216 -83l-216 83v89l216 -84l216 84v-89z" />
    <glyph glyph-name="ncaron" unicode="&#x148;" horiz-adv-x="566" 
d="M522 0h-106v285q0 76 -24.5 110.5t-100.5 34.5q-77 0 -104.5 -35t-27.5 -110v-285h-107v512h58l24 -72q15 32 61.5 55.5t125.5 23.5q61 0 102 -17t62 -51t29 -75t8 -100v-276zM506 632l-216 -83l-216 83v89l216 -84l216 84v-89z" />
    <glyph glyph-name="Eng" unicode="&#x14a;" horiz-adv-x="716" 
d="M650 640v-653q0 -104 -39 -149t-147 -45q-21 0 -89 6v88q27 -5 60 -5q54 0 77.5 20.5t26.5 60.5l-360 538v-501h-110v640h141l330 -496v496h110z" />
    <glyph glyph-name="eng" unicode="&#x14b;" horiz-adv-x="566" 
d="M522 276v-326q0 -80 -34.5 -118.5t-112.5 -38.5q-24 0 -64 5v89q32 -4 41 -4q36 0 50 16t14 49v337q0 76 -24.5 110.5t-100.5 34.5q-77 0 -104.5 -35t-27.5 -110v-285h-107v512h58l24 -72q15 32 61.5 55.5t125.5 23.5q61 0 102 -17t62 -51t29 -75t8 -100z" />
    <glyph glyph-name="Omacron" unicode="&#x14c;" horiz-adv-x="701" 
d="M655 319q0 -70 -13.5 -124.5t-46 -102.5t-94.5 -73.5t-151 -25.5t-151 26t-94.5 73.5t-46 102.5t-13.5 126t14 126t46.5 102t94 72.5t150.5 25.5t151 -25.5t94.5 -73t46 -102.5t13.5 -127zM544 319q0 54 -8 94t-28.5 74t-60 51.5t-97.5 17.5t-97 -17.5t-59.5 -51.5
t-28.5 -73.5t-8 -92.5q0 -112 41.5 -174.5t151.5 -62.5q111 0 152.5 62t41.5 173zM568 703h-439v88h439v-88z" />
    <glyph glyph-name="omacron" unicode="&#x14d;" horiz-adv-x="572" 
d="M540 256q0 -55 -12 -99.5t-40 -83t-79.5 -59.5t-123.5 -21q-253 0 -253 263q0 54 12 98.5t39 83t79 60t124 21.5t123.5 -21.5t79 -60t39.5 -83t12 -98.5zM431 256q0 82 -31 129t-114 47q-82 0 -113.5 -47t-31.5 -129q0 -83 31 -129.5t113 -46.5q83 0 114.5 46t31.5 130z
M495 577h-439v88h439v-88z" />
    <glyph glyph-name="Obreve" unicode="&#x14e;" horiz-adv-x="701" 
d="M655 319q0 -70 -13.5 -124.5t-46 -102.5t-94.5 -73.5t-151 -25.5t-151 26t-94.5 73.5t-46 102.5t-13.5 126t14 126t46.5 102t94 72.5t150.5 25.5t151 -25.5t94.5 -73t46 -102.5t13.5 -127zM544 319q0 54 -8 94t-28.5 74t-60 51.5t-97.5 17.5t-97 -17.5t-59.5 -51.5
t-28.5 -73.5t-8 -92.5q0 -112 41.5 -174.5t151.5 -62.5q111 0 152.5 62t41.5 173zM545 846q0 -87 -37 -120t-107 -33h-111q-67 0 -101 35.5t-34 117.5h93q0 -70 60 -70h82q61 0 61 70h94z" />
    <glyph glyph-name="obreve" unicode="&#x14f;" horiz-adv-x="572" 
d="M540 256q0 -55 -12 -99.5t-40 -83t-79.5 -59.5t-123.5 -21q-253 0 -253 263q0 54 12 98.5t39 83t79 60t124 21.5t123.5 -21.5t79 -60t39.5 -83t12 -98.5zM431 256q0 82 -31 129t-114 47q-82 0 -113.5 -47t-31.5 -129q0 -83 31 -129.5t113 -46.5q83 0 114.5 46t31.5 130z
M481 720q0 -87 -37 -120t-107 -33h-111q-67 0 -101 35.5t-34 117.5h93q0 -70 60 -70h82q61 0 61 70h94z" />
    <glyph glyph-name="Ohungarumlaut" unicode="&#x150;" horiz-adv-x="701" 
d="M655 319q0 -70 -13.5 -124.5t-46 -102.5t-94.5 -73.5t-151 -25.5t-151 26t-94.5 73.5t-46 102.5t-13.5 126t14 126t46.5 102t94 72.5t150.5 25.5t151 -25.5t94.5 -73t46 -102.5t13.5 -127zM544 319q0 54 -8 94t-28.5 74t-60 51.5t-97.5 17.5t-97 -17.5t-59.5 -51.5
t-28.5 -73.5t-8 -92.5q0 -112 41.5 -174.5t151.5 -62.5q111 0 152.5 62t41.5 173zM578 735l-196 -53l-2 90l196 51zM318 735l-196 -53l-1 90l196 51z" />
    <glyph glyph-name="ohungarumlaut" unicode="&#x151;" horiz-adv-x="572" 
d="M540 256q0 -55 -12 -99.5t-40 -83t-79.5 -59.5t-123.5 -21q-253 0 -253 263q0 54 12 98.5t39 83t79 60t124 21.5t123.5 -21.5t79 -60t39.5 -83t12 -98.5zM431 256q0 82 -31 129t-114 47q-82 0 -113.5 -47t-31.5 -129q0 -83 31 -129.5t113 -46.5q83 0 114.5 46t31.5 130z
M514 609l-196 -53l-2 90l196 51zM254 609l-196 -53l-1 90l196 51z" />
    <glyph glyph-name="OE" unicode="&#x152;" horiz-adv-x="1035" 
d="M995 0h-445l1 87q-65 -94 -199 -94q-89 0 -151.5 25.5t-95 73t-46.5 102.5t-14 126t14 126t47 102.5t95 73t151 25.5q132 0 199 -95l-1 88h445v-90h-335v-178h305v-92h-305v-190h335v-90zM550 319q0 232 -198 232q-195 0 -195 -231t195 -231q198 0 198 230z" />
    <glyph glyph-name="oe" unicode="&#x153;" horiz-adv-x="985" 
d="M956 157q-8 -73 -65 -118.5t-174 -45.5q-164 0 -207 112q-48 -112 -213 -112q-265 0 -265 263t265 263q163 0 212 -112q43 112 207 112q261 0 239 -305h-390q8 -133 149 -133q111 0 130 76h112zM845 301q0 59 -34 94.5t-104 35.5q-133 0 -142 -132h279q1 0 1 1v1z
M455 256q0 83 -33 130t-123 47t-124 -46.5t-34 -130.5t33.5 -130.5t122.5 -46.5q90 0 124 46t34 131z" />
    <glyph glyph-name="Racute" unicode="&#x154;" horiz-adv-x="605" 
d="M582 0h-148l-258 251v-251h-110v640h228q69 0 120 -14t78 -34t43.5 -50t20.5 -54t4 -53q0 -195 -249 -195zM449 435q0 115 -150 115h-123v-228h125q87 0 117.5 32t30.5 81zM517 836v-89l-431 -70v89z" />
    <glyph glyph-name="racute" unicode="&#x155;" horiz-adv-x="321" 
d="M316 715v-89l-265 -70v89zM316 424q-5 0 -15 1t-14 1q-75 0 -101.5 -36t-26.5 -106v-284h-107v512h57l25 -71q15 31 56 54.5t109 23.5h17v-95z" />
    <glyph glyph-name="Rcommaaccent" unicode="&#x156;" horiz-adv-x="605" 
d="M582 0h-148l-258 251v-251h-110v640h228q69 0 120 -14t78 -34t43.5 -50t20.5 -54t4 -53q0 -195 -249 -195zM449 435q0 115 -150 115h-123v-228h125q87 0 117.5 32t30.5 81zM372 -109l-27 -144h-70l15 97q-28 0 -46.5 15t-18.5 44q0 64 74 64q39 0 59.5 -19.5t13.5 -56.5z
" />
    <glyph glyph-name="rcommaaccent" unicode="&#x157;" horiz-adv-x="321" 
d="M316 424q-5 0 -15 1t-14 1q-75 0 -101.5 -36t-26.5 -106v-284h-107v512h57l25 -71q15 31 56 54.5t109 23.5h17v-95zM179 -109l-27 -144h-70l15 97q-28 0 -46.5 15t-18.5 44q0 64 74 64q39 0 59.5 -19.5t13.5 -56.5z" />
    <glyph glyph-name="Rcaron" unicode="&#x158;" horiz-adv-x="605" 
d="M582 0h-148l-258 251v-251h-110v640h228q69 0 120 -14t78 -34t43.5 -50t20.5 -54t4 -53q0 -195 -249 -195zM449 435q0 115 -150 115h-123v-228h125q87 0 117.5 32t30.5 81zM518 758l-216 -83l-216 83v89l216 -84l216 84v-89z" />
    <glyph glyph-name="rcaron" unicode="&#x159;" horiz-adv-x="321" 
d="M315 615l-141 -58l-142 58v99l142 -65l141 65v-99zM316 424q-5 0 -15 1t-14 1q-75 0 -101.5 -36t-26.5 -106v-284h-107v512h57l25 -71q15 31 56 54.5t109 23.5h17v-95z" />
    <glyph glyph-name="Sacute" unicode="&#x15a;" horiz-adv-x="642" 
d="M594 187q0 -37 -13 -69.5t-41 -61.5t-80.5 -46t-124.5 -17q-151 0 -218.5 61t-69.5 175h110q5 -141 175 -141q154 0 154 94q0 35 -31 56.5t-77.5 30t-100.5 20.5t-101 26t-78.5 49t-32.5 87q0 91 62 143.5t194 52.5q134 0 198.5 -59t65.5 -166h-109q-4 68 -41.5 100.5
t-117.5 32.5q-143 0 -143 -93q0 -32 31 -52t78 -28t101 -20.5t101 -28.5t78 -53t31 -93zM536 836v-89l-431 -70v89z" />
    <glyph glyph-name="sacute" unicode="&#x15b;" horiz-adv-x="524" 
d="M497 148q0 -63 -56 -109t-169 -46q-128 0 -187.5 49.5t-59.5 148.5h105q0 -113 140 -113q62 0 91 19t31 45q1 30 -35.5 47t-89 26t-105.5 21.5t-90 43.5t-37 82q0 72 54 114.5t170 42.5q225 0 225 -191h-100q-3 54 -32 81t-96 27q-60 0 -87.5 -18.5t-27.5 -46.5
q0 -27 36.5 -42t89 -24.5t105 -23t89 -47t36.5 -86.5zM477 710v-89l-431 -70v89z" />
    <glyph glyph-name="Scircumflex" unicode="&#x15c;" horiz-adv-x="642" 
d="M594 187q0 -37 -13 -69.5t-41 -61.5t-80.5 -46t-124.5 -17q-151 0 -218.5 61t-69.5 175h110q5 -141 175 -141q154 0 154 94q0 35 -31 56.5t-77.5 30t-100.5 20.5t-101 26t-78.5 49t-32.5 87q0 91 62 143.5t194 52.5q134 0 198.5 -59t65.5 -166h-109q-4 68 -41.5 100.5
t-117.5 32.5q-143 0 -143 -93q0 -32 31 -52t78 -28t101 -20.5t101 -28.5t78 -53t31 -93zM322 847l216 -84v-88l-216 83l-216 -83v88z" />
    <glyph glyph-name="scircumflex" unicode="&#x15d;" horiz-adv-x="524" 
d="M497 148q0 -63 -56 -109t-169 -46q-128 0 -187.5 49.5t-59.5 148.5h105q0 -113 140 -113q62 0 91 19t31 45q1 30 -35.5 47t-89 26t-105.5 21.5t-90 43.5t-37 82q0 72 54 114.5t170 42.5q225 0 225 -191h-100q-3 54 -32 81t-96 27q-60 0 -87.5 -18.5t-27.5 -46.5
q0 -27 36.5 -42t89 -24.5t105 -23t89 -47t36.5 -86.5zM263 721l216 -84v-88l-216 83l-216 -83v88z" />
    <glyph glyph-name="Scedilla" unicode="&#x15e;" horiz-adv-x="642" 
d="M594 187q0 -74 -51.5 -129t-167.5 -63q-3 -81 -40 -113t-104 -32h-134v86h120q57 0 62 59q-229 20 -232 234h110q5 -142 175 -142q150 0 154 90q3 43 -39 66.5t-104 34t-124.5 24t-107.5 50.5t-46 99q-2 90 61.5 143t194.5 53q134 0 198.5 -59t65.5 -166h-109
q-4 68 -41.5 100.5t-117.5 32.5q-75 0 -110 -25.5t-33 -73.5q1 -30 33 -48.5t78.5 -26.5t100.5 -20.5t100.5 -28.5t77 -53t30.5 -92z" />
    <glyph glyph-name="scedilla" unicode="&#x15f;" horiz-adv-x="524" 
d="M497 149q0 -55 -43.5 -99t-129.5 -54q-3 -82 -40 -114t-104 -32h-124v86h110q58 0 61 60q-105 7 -153.5 55t-48.5 139h105q0 -113 140 -113q62 0 92 20t30 46q0 30 -36.5 47t-88.5 25.5t-104.5 20.5t-89.5 43t-38 82q0 72 54.5 115t169.5 43q225 0 225 -191h-100
q-3 54 -32 81t-96 27q-61 0 -88 -18.5t-27 -47.5q0 -26 36.5 -41.5t89 -24.5t105 -22.5t89 -46.5t36.5 -86z" />
    <glyph glyph-name="Scaron" unicode="&#x160;" horiz-adv-x="642" 
d="M594 187q0 -37 -13 -69.5t-41 -61.5t-80.5 -46t-124.5 -17q-151 0 -218.5 61t-69.5 175h110q5 -141 175 -141q154 0 154 94q0 35 -31 56.5t-77.5 30t-100.5 20.5t-101 26t-78.5 49t-32.5 87q0 91 62 143.5t194 52.5q134 0 198.5 -59t65.5 -166h-109q-4 68 -41.5 100.5
t-117.5 32.5q-143 0 -143 -93q0 -32 31 -52t78 -28t101 -20.5t101 -28.5t78 -53t31 -93zM542 759l-216 -83l-216 83v89l216 -84l216 84v-89z" />
    <glyph glyph-name="scaron" unicode="&#x161;" horiz-adv-x="524" 
d="M497 148q0 -63 -56 -109t-169 -46q-128 0 -187.5 49.5t-59.5 148.5h105q0 -113 140 -113q62 0 91 19t31 45q1 30 -35.5 47t-89 26t-105.5 21.5t-90 43.5t-37 82q0 72 54 114.5t170 42.5q225 0 225 -191h-100q-3 54 -32 81t-96 27q-60 0 -87.5 -18.5t-27.5 -46.5
q0 -27 36.5 -42t89 -24.5t105 -23t89 -47t36.5 -86.5zM478 632l-216 -83l-216 83v89l216 -84l216 84v-89z" />
    <glyph glyph-name="Tcaron" unicode="&#x164;" horiz-adv-x="496" 
d="M486 550h-184v-550h-107v550h-184v90h475v-90zM464 758l-216 -83l-216 83v89l216 -84l216 84v-89z" />
    <glyph glyph-name="tcaron" unicode="&#x165;" horiz-adv-x="337" 
d="M320 426h-131v-279q0 -39 26 -54t105 -11v-86q-128 -8 -184 26.5t-56 124.5v279h-73v64l73 22v128h106v-128h134v-86zM343 709l-23 -169h-69l9 126q-68 0 -68 64q0 36 19.5 49.5t58.5 13.5q42 0 60.5 -18.5t12.5 -65.5z" />
    <glyph glyph-name="Tbar" unicode="&#x166;" horiz-adv-x="496" 
d="M394 272h-92v-272h-107v272h-93v83h93v194h-184v91h475v-91h-184v-194h92v-83z" />
    <glyph glyph-name="tbar" unicode="&#x167;" horiz-adv-x="337" 
d="M320 425h-131v-104h123v-86h-123v-88q0 -39 26 -54t105 -11v-86q-128 -8 -184 26.5t-56 124.5v88h-71v86h71v104h-73v64l73 23v128h106v-128h134v-87z" />
    <glyph glyph-name="Utilde" unicode="&#x168;" horiz-adv-x="654" 
d="M600 640v-353q0 -157 -63.5 -225.5t-209.5 -68.5t-209 68.5t-63 225.5v353h111v-348q0 -106 34 -154t127 -48q94 0 128 48t34 154v348h111zM565 823q0 -62 -27 -94.5t-102 -32.5q-49 0 -117.5 36t-91.5 36q-32 0 -44.5 -15.5t-14.5 -48.5h-80q-1 12 -1 19q0 131 131 131
q47 0 111.5 -35t95.5 -35q37 0 47.5 14.5t10.5 47.5h80q2 -13 2 -23z" />
    <glyph glyph-name="utilde" unicode="&#x169;" horiz-adv-x="566" 
d="M515 0h-59l-22 74q-17 -33 -63.5 -57t-124.5 -24q-62 0 -102.5 16t-62 49.5t-29.5 73.5t-8 99v281h105v-289q0 -75 24.5 -107.5t102.5 -32.5q77 0 104 35t27 110v284h108v-512zM523 684q0 -62 -27 -94.5t-102 -32.5q-49 0 -117.5 36t-91.5 36q-32 0 -44.5 -15.5
t-14.5 -48.5h-80q-1 12 -1 19q0 131 131 131q47 0 111.5 -35t95.5 -35q37 0 47.5 14.5t10.5 47.5h80q2 -13 2 -23z" />
    <glyph glyph-name="Umacron" unicode="&#x16a;" horiz-adv-x="654" 
d="M600 640v-353q0 -157 -63.5 -225.5t-209.5 -68.5t-209 68.5t-63 225.5v353h111v-348q0 -106 34 -154t127 -48q94 0 128 48t34 154v348h111zM541 703h-439v88h439v-88z" />
    <glyph glyph-name="umacron" unicode="&#x16b;" horiz-adv-x="566" 
d="M515 0h-59l-22 74q-17 -33 -63.5 -57t-124.5 -24q-62 0 -102.5 16t-62 49.5t-29.5 73.5t-8 99v281h105v-289q0 -75 24.5 -107.5t102.5 -32.5q77 0 104 35t27 110v284h108v-512zM492 577h-439v88h439v-88z" />
    <glyph glyph-name="Ubreve" unicode="&#x16c;" horiz-adv-x="654" 
d="M600 640v-353q0 -157 -63.5 -225.5t-209.5 -68.5t-209 68.5t-63 225.5v353h111v-348q0 -106 34 -154t127 -48q94 0 128 48t34 154v348h111zM521 846q0 -87 -37 -120t-107 -33h-111q-67 0 -101 35.5t-34 117.5h93q0 -70 60 -70h82q61 0 61 70h94z" />
    <glyph glyph-name="ubreve" unicode="&#x16d;" horiz-adv-x="566" 
d="M515 0h-59l-22 74q-17 -33 -63.5 -57t-124.5 -24q-62 0 -102.5 16t-62 49.5t-29.5 73.5t-8 99v281h105v-289q0 -75 24.5 -107.5t102.5 -32.5q77 0 104 35t27 110v284h108v-512zM478 720q0 -87 -37 -120t-107 -33h-111q-67 0 -101 35.5t-34 117.5h93q0 -70 60 -70h82
q61 0 61 70h94z" />
    <glyph glyph-name="Uring" unicode="&#x16e;" horiz-adv-x="654" 
d="M600 640v-353q0 -157 -63.5 -225.5t-209.5 -68.5t-209 68.5t-63 225.5v353h111v-348q0 -106 34 -154t127 -48q94 0 128 48t34 154v348h111zM476 795q0 -62 -34 -89.5t-115 -27.5q-84 0 -117 27t-33 90q0 62 33 88.5t117 26.5q82 0 115.5 -26.5t33.5 -88.5zM395 795
q0 26 -16 34t-52 8q-37 0 -53 -8t-16 -34q0 -27 16 -35.5t53 -8.5q35 0 51.5 9t16.5 35z" />
    <glyph glyph-name="uring" unicode="&#x16f;" horiz-adv-x="566" 
d="M515 0h-59l-22 74q-17 -33 -63.5 -57t-124.5 -24q-62 0 -102.5 16t-62 49.5t-29.5 73.5t-8 99v281h105v-289q0 -75 24.5 -107.5t102.5 -32.5q77 0 104 35t27 110v284h108v-512zM432 669q0 -62 -34 -89.5t-115 -27.5q-84 0 -117 27t-33 90q0 62 33 88.5t117 26.5
q82 0 115.5 -26.5t33.5 -88.5zM351 669q0 26 -16 34t-52 8q-37 0 -53 -8t-16 -34q0 -27 16 -35.5t53 -8.5q35 0 51.5 9t16.5 35z" />
    <glyph glyph-name="Uhungarumlaut" unicode="&#x170;" horiz-adv-x="654" 
d="M600 640v-353q0 -157 -63.5 -225.5t-209.5 -68.5t-209 68.5t-63 225.5v353h111v-348q0 -106 34 -154t127 -48q94 0 128 48t34 154v348h111zM554 740l-196 -53l-2 90l196 51zM294 740l-196 -53l-1 90l196 51z" />
    <glyph glyph-name="uhungarumlaut" unicode="&#x171;" horiz-adv-x="566" 
d="M515 0h-59l-22 74q-17 -33 -63.5 -57t-124.5 -24q-62 0 -102.5 16t-62 49.5t-29.5 73.5t-8 99v281h105v-289q0 -75 24.5 -107.5t102.5 -32.5q77 0 104 35t27 110v284h108v-512zM511 609l-196 -53l-2 90l196 51zM251 609l-196 -53l-1 90l196 51z" />
    <glyph glyph-name="Uogonek" unicode="&#x172;" horiz-adv-x="654" 
d="M415 -183h-39q-94 0 -94 74q0 54 49 101h-4q-146 0 -209 68.5t-63 225.5v354h111v-349q0 -106 34 -154t127 -48q94 0 128 48t34 154v349h111v-354q0 -132 -44 -200t-142 -86q-20 -17 -32 -37.5t-12 -35.5q0 -30 45 -30v-80z" />
    <glyph glyph-name="uogonek" unicode="&#x173;" horiz-adv-x="566" 
d="M515 -183h-39q-94 0 -94 74q0 55 62 109l10 9l-20 65q-17 -33 -63.5 -57t-124.5 -24q-118 0 -160 59t-42 180v280h105v-288q0 -76 25 -108.5t102 -32.5q76 0 103.5 35t27.5 111v283h108v-519q-45 -37 -45 -69q0 -30 45 -30v-77z" />
    <glyph glyph-name="Wcircumflex" unicode="&#x174;" horiz-adv-x="975" 
d="M970 640l-194 -640h-132l-157 519l-155 -519h-132l-195 640h116l146 -523l158 523h130l157 -523l147 523h111zM488 847l216 -84v-88l-216 83l-216 -83v88z" />
    <glyph glyph-name="wcircumflex" unicode="&#x175;" horiz-adv-x="806" 
d="M796 512l-154 -512h-123l-122 401l-120 -401h-117l-150 512h116l98 -412l121 412h105l127 -415l104 415h115zM397 721l216 -84v-88l-216 83l-216 -83v88z" />
    <glyph glyph-name="Ycircumflex" unicode="&#x176;" horiz-adv-x="607" 
d="M609 640l-253 -446v-194h-115v194l-242 446h116l185 -361l194 361h115zM303 855l216 -84v-88l-216 83l-216 -83v88z" />
    <glyph glyph-name="ycircumflex" unicode="&#x177;" horiz-adv-x="572" 
d="M520 512v-516q0 -42 -9.5 -74.5t-33.5 -63.5t-73.5 -48t-122.5 -17q-132 0 -184.5 46t-52.5 129h106q2 -23 7 -37.5t18 -28.5t39.5 -20.5t67.5 -6.5q78 0 105 30.5t27 85.5v67q-42 -65 -163 -65q-117 0 -159 59t-42 180v280h105v-289q0 -75 24.5 -107.5t101.5 -32.5
t105 35t28 110v284h106zM287 721l216 -84v-88l-216 83l-216 -83v88z" />
    <glyph glyph-name="Ydieresis" unicode="&#x178;" horiz-adv-x="607" 
d="M609 640l-253 -446v-194h-115v194l-242 446h116l185 -361l194 361h115zM471 753q0 -33 -17 -45.5t-51 -12.5q-37 0 -54.5 12.5t-17.5 45.5q0 34 17.5 46t54.5 12q35 0 51.5 -12t16.5 -46zM270 753q0 -33 -17 -45.5t-52 -12.5q-36 0 -53.5 12.5t-17.5 45.5q0 34 17 46
t54 12q35 0 52 -12t17 -46z" />
    <glyph glyph-name="Zacute" unicode="&#x179;" horiz-adv-x="561" 
d="M525 0h-488v108l363 442h-363v90h475v-102l-373 -448h386v-90zM496 836v-89l-431 -70v89z" />
    <glyph glyph-name="zacute" unicode="&#x17a;" horiz-adv-x="495" 
d="M461 0h-427v91l301 334h-300v87h416v-92l-306 -333h316v-87zM463 710v-89l-431 -70v89z" />
    <glyph glyph-name="Zdotaccent" unicode="&#x17b;" horiz-adv-x="561" 
d="M525 0h-488v108l363 442h-363v90h475v-102l-373 -448h386v-90zM365 748q0 -38 -16 -50.5t-68 -12.5q-54 0 -69.5 12t-15.5 51q0 42 15 54.5t70 12.5q54 0 69 -12.5t15 -54.5z" />
    <glyph glyph-name="zdotaccent" unicode="&#x17c;" horiz-adv-x="495" 
d="M461 0h-427v91l301 334h-300v87h416v-92l-306 -333h316v-87zM332 622q0 -38 -16 -50.5t-68 -12.5q-54 0 -69.5 12t-15.5 51q0 42 15 54.5t70 12.5q54 0 69 -12.5t15 -54.5z" />
    <glyph glyph-name="Zcaron" unicode="&#x17d;" horiz-adv-x="561" 
d="M525 0h-488v108l363 442h-363v90h475v-102l-373 -448h386v-90zM496 759l-216 -83l-216 83v89l216 -84l216 84v-89z" />
    <glyph glyph-name="zcaron" unicode="&#x17e;" horiz-adv-x="495" 
d="M461 0h-427v91l301 334h-300v87h416v-92l-306 -333h316v-87zM464 632l-216 -83l-216 83v89l216 -84l216 84v-89z" />
    <glyph glyph-name="florin" unicode="&#x192;" horiz-adv-x="331" 
d="M182 425l-1 -491q0 -83 -50 -115t-166 -24v88q66 -6 88.5 7t22.5 44v491h-71v64l71 23v48q0 90 56 124.5t184 26.5v-87q-78 4 -104.5 -13t-26.5 -57v-42h131v-87h-134z" />
    <glyph glyph-name="Scommaaccent" unicode="&#x218;" horiz-adv-x="642" 
d="M594 187q0 -37 -13 -69.5t-41 -61.5t-80.5 -46t-124.5 -17q-151 0 -218.5 61t-69.5 175h110q5 -141 175 -141q154 0 154 94q0 35 -31 56.5t-77.5 30t-100.5 20.5t-101 26t-78.5 49t-32.5 87q0 91 62 143.5t194 52.5q134 0 198.5 -59t65.5 -166h-109q-4 68 -41.5 100.5
t-117.5 32.5q-143 0 -143 -93q0 -32 31 -52t78 -28t101 -20.5t101 -28.5t78 -53t31 -93zM391 -109l-27 -144h-70l15 97q-28 0 -46.5 15t-18.5 44q0 64 74 64q39 0 59.5 -19.5t13.5 -56.5z" />
    <glyph glyph-name="scommaaccent" unicode="&#x219;" horiz-adv-x="524" 
d="M497 148q0 -63 -56 -109t-169 -46q-128 0 -187.5 49.5t-59.5 148.5h105q0 -113 140 -113q62 0 91 19t31 45q1 30 -35.5 47t-89 26t-105.5 21.5t-90 43.5t-37 82q0 72 54 114.5t170 42.5q225 0 225 -191h-100q-3 54 -32 81t-96 27q-60 0 -87.5 -18.5t-27.5 -46.5
q0 -27 36.5 -42t89 -24.5t105 -23t89 -47t36.5 -86.5zM325 -109l-27 -144h-70l15 97q-28 0 -46.5 15t-18.5 44q0 64 74 64q39 0 59.5 -19.5t13.5 -56.5z" />
    <glyph glyph-name="Tcommaaccent" unicode="&#x21a;" horiz-adv-x="496" 
d="M486 550h-184v-550h-107v550h-184v90h475v-90zM317 -109l-27 -144h-70l15 97q-28 0 -46.5 15t-18.5 44q0 64 74 64q39 0 59.5 -19.5t13.5 -56.5z" />
    <glyph glyph-name="tcommaaccent" unicode="&#x21b;" horiz-adv-x="337" 
d="M320 426h-131v-279q0 -39 26 -54t105 -11v-86q-128 -8 -184 26.5t-56 124.5v279h-73v64l73 22v128h106v-128h134v-86zM270 -109l-27 -144h-70l15 97q-28 0 -46.5 15t-18.5 44q0 64 74 64q39 0 59.5 -19.5t13.5 -56.5z" />
    <glyph glyph-name="circumflex" unicode="&#x2c6;" horiz-adv-x="550" 
d="M276 721l216 -84v-88l-216 83l-216 -83v88z" />
    <glyph glyph-name="caron" unicode="&#x2c7;" horiz-adv-x="552" 
d="M492 632l-216 -83l-216 83v89l216 -84l216 84v-89z" />
    <glyph glyph-name="breve" unicode="&#x2d8;" horiz-adv-x="586" 
d="M486 720q0 -87 -37 -120t-107 -33h-111q-67 0 -101 35.5t-34 117.5h93q0 -70 60 -70h82q61 0 61 70h94z" />
    <glyph glyph-name="dotaccent" unicode="&#x2d9;" horiz-adv-x="559" 
d="M365 622q0 -38 -16 -50.5t-68 -12.5q-54 0 -69.5 12t-15.5 51q0 42 15 54.5t70 12.5q54 0 69 -12.5t15 -54.5z" />
    <glyph glyph-name="ring" unicode="&#x2da;" horiz-adv-x="559" 
d="M430 669q0 -62 -34 -89.5t-115 -27.5q-84 0 -117 27t-33 90q0 62 33 88.5t117 26.5q82 0 115.5 -26.5t33.5 -88.5zM349 669q0 26 -16 34t-52 8q-37 0 -53 -8t-16 -34q0 -27 16 -35.5t53 -8.5q35 0 51.5 9t16.5 35z" />
    <glyph glyph-name="ogonek" unicode="&#x2db;" horiz-adv-x="286" 
d="M182 -183h-38q-94 0 -94 74q0 59 55 109h77q-19 -17 -32 -39.5t-13 -37.5q0 -16 9.5 -24t35.5 -8v-74z" />
    <glyph glyph-name="tilde" unicode="&#x2dc;" horiz-adv-x="586" 
d="M534 684q0 -62 -27 -94.5t-102 -32.5q-49 0 -117.5 36t-91.5 36q-32 0 -44.5 -15.5t-14.5 -48.5h-80q-1 12 -1 19q0 131 131 131q47 0 111.5 -35t95.5 -35q37 0 47.5 14.5t10.5 47.5h80q2 -13 2 -23z" />
    <glyph glyph-name="hungarumlaut" unicode="&#x2dd;" horiz-adv-x="550" 
d="M502 609l-196 -53l-2 90l196 51zM242 609l-196 -53l-1 90l196 51z" />
    <glyph glyph-name="pi" unicode="&#x3c0;" horiz-adv-x="911" 
d="M865 320q0 -71 -11 -129.5t-40 -112t-74 -90t-117.5 -58t-167.5 -21.5t-167 21.5t-117.5 58t-74 90t-40 112.5t-11.5 130q0 410 410 410q118 0 200.5 -32t127 -90.5t63.5 -128.5t19 -160zM766 320q0 74 -14.5 130t-48.5 102t-96.5 70t-151.5 24q-88 0 -150.5 -24.5
t-96.5 -70t-49 -102t-15 -129.5q0 -74 14.5 -130t49 -102t96.5 -70t151 -24t151.5 24t96.5 70t48.5 102t14.5 130zM642 382q0 -68 -50 -105t-136 -37h-79v-133h-91v422h165q49 0 85.5 -9.5t56 -23.5t31.5 -35t15 -39t3 -40zM550 382q0 74 -95 74h-78v-145h79q31 0 51.5 7
t29 19t11 22t2.5 23z" />
    <glyph glyph-name="Bdotaccent" unicode="&#x1e02;" horiz-adv-x="607" 
d="M575 186q0 -82 -59.5 -134t-195.5 -52h-254v640h250q122 0 180.5 -43.5t58.5 -116.5q0 -51 -21 -90.5t-64 -49.5q49 -14 77 -58t28 -96zM462 187q0 30 -11 50t-32 29.5t-42 12.5t-51 3h-150v-192h148q82 0 110 25t28 72zM447 457q0 45 -26.5 68.5t-100.5 23.5h-144v-182
h150q121 0 121 90zM387 749q0 -38 -16 -50.5t-68 -12.5q-54 0 -69.5 12t-15.5 51q0 42 15 54.5t70 12.5q54 0 69 -12.5t15 -54.5z" />
    <glyph glyph-name="bdotaccent" unicode="&#x1e03;" horiz-adv-x="581" 
d="M547 256q0 -56 -11 -101t-35 -82.5t-67.5 -58.5t-104.5 -21q-82 0 -130 24t-67 57l-22 -74h-58v707h105v-257q45 69 174 69q216 0 216 -263zM440 256q0 86 -30 129.5t-113 43.5q-84 0 -112.5 -43.5t-28.5 -128.5q0 -88 30.5 -132.5t113.5 -44.5q81 0 110.5 44.5
t29.5 131.5zM407 622q0 -38 -16 -50.5t-68 -12.5q-54 0 -69.5 12t-15.5 51q0 42 15 54.5t70 12.5q54 0 69 -12.5t15 -54.5z" />
    <glyph glyph-name="Ddotaccent" unicode="&#x1e0a;" horiz-adv-x="646" 
d="M602 324q0 -153 -78.5 -238.5t-223.5 -85.5h-234v640h244q144 0 218 -81t74 -235zM495 325q-1 126 -50.5 175.5t-158.5 49.5h-111v-460h105q109 0 162 54.5t53 180.5zM386 749q0 -38 -16 -50.5t-68 -12.5q-54 0 -69.5 12t-15.5 51q0 42 15 54.5t70 12.5q54 0 69 -12.5
t15 -54.5z" />
    <glyph glyph-name="ddotaccent" unicode="&#x1e0b;" horiz-adv-x="581" 
d="M529 0h-58l-24 73q-16 -32 -65 -56t-131 -24q-61 0 -105 21t-68 58.5t-35 82.5t-11 101q0 263 218 263q129 0 174 -70v258h105v-707zM425 256q0 85 -29.5 129t-113.5 44q-82 0 -111.5 -43.5t-29.5 -129.5t29.5 -130.5t110.5 -44.5q83 0 113.5 44t30.5 131zM347 622
q0 -38 -16 -50.5t-68 -12.5q-54 0 -69.5 12t-15.5 51q0 42 15 54.5t70 12.5q54 0 69 -12.5t15 -54.5z" />
    <glyph glyph-name="Fdotaccent" unicode="&#x1e1e;" horiz-adv-x="521" 
d="M501 550h-326v-179h302v-89h-302v-282h-109v640h435v-90zM375 749q0 -38 -16 -50.5t-68 -12.5q-54 0 -69.5 12t-15.5 51q0 42 15 54.5t70 12.5q54 0 69 -12.5t15 -54.5z" />
    <glyph glyph-name="fdotaccent" unicode="&#x1e1f;" horiz-adv-x="325" 
d="M314 425h-139v-425h-101v425h-73v64l73 22v49q0 81 45.5 116.5t147.5 35.5q30 0 47 -1v-87q-7 0 -18 0.5t-16 0.5q-60 0 -82.5 -16t-22.5 -50v-47h139v-87zM297 809q0 -38 -16 -50.5t-68 -12.5q-54 0 -69.5 12t-15.5 51q0 42 15 54.5t70 12.5q54 0 69 -12.5t15 -54.5z
" />
    <glyph glyph-name="Mdotaccent" unicode="&#x1e40;" horiz-adv-x="890" 
d="M825 0h-110v507l-215 -507h-110l-215 507v-507h-109v640h163l186 -436l30 -83q-1 0 5 16.5t13.5 37t11.5 29.5l186 436h164v-640zM529 749q0 -38 -16 -50.5t-68 -12.5q-54 0 -69.5 12t-15.5 51q0 42 15 54.5t70 12.5q54 0 69 -12.5t15 -54.5z" />
    <glyph glyph-name="mdotaccent" unicode="&#x1e41;" horiz-adv-x="804" 
d="M760 0h-108v307q0 61 -19 91.5t-76 30.5q-56 0 -76.5 -30.5t-20.5 -91.5v-307h-108v307q0 61 -19 91.5t-76 30.5q-56 0 -77 -31t-21 -91v-307h-107v512h58l24 -66q14 30 53 51.5t104 21.5q106 0 141 -79q13 32 53 55.5t106 23.5q51 0 85.5 -16.5t52 -48t24.5 -68t7 -85.5
v-301zM497 622q0 -38 -16 -50.5t-68 -12.5q-54 0 -69.5 12t-15.5 51q0 42 15 54.5t70 12.5q54 0 69 -12.5t15 -54.5z" />
    <glyph glyph-name="Pdotaccent" unicode="&#x1e56;" horiz-adv-x="605" 
d="M564 426q0 -27 -2.5 -46.5t-10 -46t-25 -45.5t-44.5 -36.5t-72.5 -26.5t-104.5 -9h-129v-216h-110v640h231q70 0 121.5 -14.5t78.5 -35t43 -51.5t20 -56t4 -57zM451 426q0 24 -5 42.5t-19 39t-46 31.5t-80 11h-125v-246h128q47 0 78.5 11t45.5 30.5t18.5 38t4.5 42.5z
M386 749q0 -38 -16 -50.5t-68 -12.5q-54 0 -69.5 12t-15.5 51q0 42 15 54.5t70 12.5q54 0 69 -12.5t15 -54.5z" />
    <glyph glyph-name="pdotaccent" unicode="&#x1e57;" horiz-adv-x="580" 
d="M547 255q0 -262 -216 -262q-129 0 -174 70v-263h-105v712h58l22 -73q19 32 66.5 56t130.5 24q61 0 104.5 -21t67.5 -59t35 -83t11 -101zM440 255q0 87 -29.5 131.5t-110.5 44.5q-83 0 -113.5 -44t-30.5 -132q0 -86 28.5 -129.5t112.5 -43.5q83 0 113 43.5t30 129.5z
M395 622q0 -38 -16 -50.5t-68 -12.5q-54 0 -69.5 12t-15.5 51q0 42 15 54.5t70 12.5q54 0 69 -12.5t15 -54.5z" />
    <glyph glyph-name="Sdotaccent" unicode="&#x1e60;" horiz-adv-x="642" 
d="M594 187q0 -37 -13 -69.5t-41 -61.5t-80.5 -46t-124.5 -17q-151 0 -218.5 61t-69.5 175h110q5 -141 175 -141q154 0 154 94q0 35 -31 56.5t-77.5 30t-100.5 20.5t-101 26t-78.5 49t-32.5 87q0 91 62 143.5t194 52.5q134 0 198.5 -59t65.5 -166h-109q-4 68 -41.5 100.5
t-117.5 32.5q-143 0 -143 -93q0 -32 31 -52t78 -28t101 -20.5t101 -28.5t78 -53t31 -93zM407 749q0 -38 -16 -50.5t-68 -12.5q-54 0 -69.5 12t-15.5 51q0 42 15 54.5t70 12.5q54 0 69 -12.5t15 -54.5z" />
    <glyph glyph-name="sdotaccent" unicode="&#x1e61;" horiz-adv-x="524" 
d="M497 148q0 -63 -56 -109t-169 -46q-128 0 -187.5 49.5t-59.5 148.5h105q0 -113 140 -113q62 0 91 19t31 45q1 30 -35.5 47t-89 26t-105.5 21.5t-90 43.5t-37 82q0 72 54 114.5t170 42.5q225 0 225 -191h-100q-3 54 -32 81t-96 27q-60 0 -87.5 -18.5t-27.5 -46.5
q0 -27 36.5 -42t89 -24.5t105 -23t89 -47t36.5 -86.5zM344 622q0 -38 -16 -50.5t-68 -12.5q-54 0 -69.5 12t-15.5 51q0 42 15 54.5t70 12.5q54 0 69 -12.5t15 -54.5z" />
    <glyph glyph-name="Tdotaccent" unicode="&#x1e6a;" horiz-adv-x="496" 
d="M486 550h-184v-550h-107v550h-184v90h475v-90zM332 749q0 -38 -16 -50.5t-68 -12.5q-54 0 -69.5 12t-15.5 51q0 42 15 54.5t70 12.5q54 0 69 -12.5t15 -54.5z" />
    <glyph glyph-name="tdotaccent" unicode="&#x1e6b;" horiz-adv-x="337" 
d="M320 426h-131v-279q0 -39 26 -54t105 -11v-86q-128 -8 -184 26.5t-56 124.5v279h-73v64l73 22v128h106v-128h134v-86zM219 749q0 -38 -16 -50.5t-68 -12.5q-54 0 -69.5 12t-15.5 51q0 42 15 54.5t70 12.5q54 0 69 -12.5t15 -54.5z" />
    <glyph glyph-name="Wgrave" unicode="&#x1e80;" horiz-adv-x="975" 
d="M970 640l-194 -640h-132l-157 519l-155 -519h-132l-195 640h116l146 -523l158 523h130l157 -523l147 523h111zM702 677l-430 69v87l430 -67v-89z" />
    <glyph glyph-name="wgrave" unicode="&#x1e81;" horiz-adv-x="806" 
d="M796 512l-154 -512h-123l-122 401l-120 -401h-117l-150 512h116l98 -412l121 412h105l127 -415l104 415h115zM612 550l-430 69v87l430 -67v-89z" />
    <glyph glyph-name="Wacute" unicode="&#x1e82;" horiz-adv-x="975" 
d="M970 640l-194 -640h-132l-157 519l-155 -519h-132l-195 640h116l146 -523l158 523h130l157 -523l147 523h111zM702 837v-89l-431 -70v89z" />
    <glyph glyph-name="wacute" unicode="&#x1e83;" horiz-adv-x="806" 
d="M796 512l-154 -512h-123l-122 401l-120 -401h-117l-150 512h116l98 -412l121 412h105l127 -415l104 415h115zM613 710v-89l-431 -70v89z" />
    <glyph glyph-name="Wdieresis" unicode="&#x1e84;" horiz-adv-x="975" 
d="M970 640l-194 -640h-132l-157 519l-155 -519h-132l-195 640h116l146 -523l158 523h130l157 -523l147 523h111zM659 749q0 -33 -17 -45.5t-51 -12.5q-37 0 -54.5 12.5t-17.5 45.5q0 34 17.5 46t54.5 12q35 0 51.5 -12t16.5 -46zM458 749q0 -33 -17 -45.5t-52 -12.5
q-36 0 -53.5 12.5t-17.5 45.5q0 34 17 46t54 12q35 0 52 -12t17 -46z" />
    <glyph glyph-name="wdieresis" unicode="&#x1e85;" horiz-adv-x="806" 
d="M796 512l-154 -512h-123l-122 401l-120 -401h-117l-150 512h116l98 -412l121 412h105l127 -415l104 415h115zM569 622q0 -33 -17 -45.5t-51 -12.5q-37 0 -54.5 12.5t-17.5 45.5q0 34 17.5 46t54.5 12q35 0 51.5 -12t16.5 -46zM368 622q0 -33 -17 -45.5t-52 -12.5
q-36 0 -53.5 12.5t-17.5 45.5q0 34 17 46t54 12q35 0 52 -12t17 -46z" />
    <glyph glyph-name="Ygrave" unicode="&#x1ef2;" horiz-adv-x="607" 
d="M609 640l-253 -446v-194h-115v194l-242 446h116l185 -361l194 361h115zM518 684l-430 69v87l430 -67v-89z" />
    <glyph glyph-name="ygrave" unicode="&#x1ef3;" horiz-adv-x="572" 
d="M520 512v-516q0 -42 -9.5 -74.5t-33.5 -63.5t-73.5 -48t-122.5 -17q-132 0 -184.5 46t-52.5 129h106q2 -23 7 -37.5t18 -28.5t39.5 -20.5t67.5 -6.5q78 0 105 30.5t27 85.5v67q-42 -65 -163 -65q-117 0 -159 59t-42 180v280h105v-289q0 -75 24.5 -107.5t101.5 -32.5
t105 35t28 110v284h106zM501 550l-430 69v87l430 -67v-89z" />
    <glyph glyph-name="endash" unicode="&#x2013;" horiz-adv-x="635" 
d="M595 214h-555v88h555v-88z" />
    <glyph glyph-name="emdash" unicode="&#x2014;" horiz-adv-x="814" 
d="M774 214h-734v88h734v-88z" />
    <glyph glyph-name="quoteleft" unicode="&#x2018;" horiz-adv-x="204" 
d="M28 471l23 169h69l-9 -126q68 0 68 -64q0 -36 -19.5 -49.5t-58.5 -13.5q-42 0 -60.5 18.5t-12.5 65.5z" />
    <glyph glyph-name="quoteright" unicode="&#x2019;" horiz-adv-x="205" 
d="M177 563l-23 -169h-69l9 126q-68 0 -68 64q0 36 19.5 49.5t58.5 13.5q42 0 60.5 -18.5t12.5 -65.5z" />
    <glyph glyph-name="quotesinglbase" unicode="&#x201a;" horiz-adv-x="204" 
d="M177 38l-23 -169h-69l9 126q-68 0 -68 64q0 36 19.5 49.5t58.5 13.5q42 0 60.5 -18.5t12.5 -65.5z" />
    <glyph glyph-name="quotedblleft" unicode="&#x201c;" horiz-adv-x="411" 
d="M28 471l23 169h69l-9 -126q68 0 68 -64q0 -36 -19.5 -49.5t-58.5 -13.5q-42 0 -60.5 18.5t-12.5 65.5zM229 471l23 169h69l-9 -126q68 0 68 -64q0 -36 -19.5 -49.5t-58.5 -13.5q-42 0 -60.5 18.5t-12.5 65.5z" />
    <glyph glyph-name="quotedblright" unicode="&#x201d;" horiz-adv-x="407" 
d="M378 563l-23 -169h-69l9 126q-68 0 -68 64q0 36 19.5 49.5t58.5 13.5q42 0 60.5 -18.5t12.5 -65.5zM177 563l-23 -169h-69l9 126q-68 0 -68 64q0 36 19.5 49.5t58.5 13.5q42 0 60.5 -18.5t12.5 -65.5z" />
    <glyph glyph-name="quotedblbase" unicode="&#x201e;" horiz-adv-x="407" 
d="M378 38l-23 -169h-69l9 126q-68 0 -68 64q0 36 19.5 49.5t58.5 13.5q42 0 60.5 -18.5t12.5 -65.5zM177 38l-23 -169h-69l9 126q-68 0 -68 64q0 36 19.5 49.5t58.5 13.5q42 0 60.5 -18.5t12.5 -65.5z" />
    <glyph glyph-name="dagger" unicode="&#x2020;" horiz-adv-x="431" 
d="M404 426h-133v-494h-112v494h-133v86h133v128h112v-127h133v-87z" />
    <glyph glyph-name="daggerdbl" unicode="&#x2021;" horiz-adv-x="451" 
d="M415 246h-134v-314h-112v314h-132v86h132v94h-132v86h132v128h112v-126h134v-88h-134v-94h134v-86z" />
    <glyph glyph-name="bullet" unicode="&#x2022;" horiz-adv-x="820" 
d="M772 319q0 -55 -9 -100.5t-34 -88.5t-64.5 -72.5t-104 -47t-150.5 -17.5t-150.5 17.5t-104 47t-64 72.5t-33.5 88.5t-9 101.5q0 70 16 125t54.5 102.5t112 73.5t178.5 26q86 0 150.5 -17.5t104 -47t64.5 -73t34 -89t9 -101.5z" />
    <glyph glyph-name="ellipsis" unicode="&#x2026;" horiz-adv-x="635" 
d="M610 57q0 -64 -78 -64q-38 0 -57.5 14t-19.5 50q0 37 19.5 51t57.5 14t58 -14t20 -51zM395 57q0 -36 -19.5 -50t-56.5 -14q-39 0 -59 14t-20 50q0 37 20 51t59 14q37 0 56.5 -14t19.5 -51zM180 57q0 -36 -19.5 -50t-56.5 -14q-38 0 -58 14t-20 50q0 37 19.5 51t58.5 14
q37 0 56.5 -14t19.5 -51z" />
    <glyph glyph-name="perthousand" unicode="&#x2030;" horiz-adv-x="1749" 
d="M1710 223q0 -230 -229 -230q-226 0 -226 230t227 230q228 0 228 -230zM1199 223q0 -230 -229 -230q-226 0 -226 230t227 230q228 0 228 -230zM786 640l-217 -640h-107l188 551h-215q59 -40 59 -140q0 -232 -229 -232q-67 0 -113.5 18.5t-70 52.5t-33 72.5t-9.5 87.5
t10.5 87t36 72t77 52.5t126.5 18.5h497zM1615 223q0 66 -29 104t-104 38q-132 0 -132 -142q0 -66 29 -103.5t102 -37.5q74 0 104 37t30 104zM1104 223q0 66 -29 104t-104 38q-74 0 -103 -38t-29 -104t29 -103.5t102 -37.5q74 0 104 37t30 104zM399 411v-1q0 65 -29 103
t-104 38q-74 0 -103 -37t-29 -103q0 -67 29 -104t102 -37q74 0 104 37t30 104z" />
    <glyph glyph-name="guilsinglleft" unicode="&#x2039;" horiz-adv-x="264" 
d="M237 42h-106l-105 213l105 214h106l-103 -214z" />
    <glyph glyph-name="guilsinglright" unicode="&#x203a;" horiz-adv-x="264" 
d="M237 255l-103 -213h-108l104 213l-104 214h108z" />
    <glyph glyph-name="Euro" unicode="&#x20ac;" horiz-adv-x="732" 
d="M694 246q0 -113 -74.5 -183t-224.5 -70q-286 0 -304 286h-81v87h81q24 281 304 281q148 0 223.5 -71.5t75.5 -179.5h-113q-6 72 -52 116t-134 44q-177 0 -191 -190h275v-87h-277q16 -194 193 -194q174 0 186 161h113z" />
    <glyph glyph-name="trademark" unicode="&#x2122;" horiz-adv-x="990" 
d="M798 640h137v-446h-91v331l-134 -331h-74l-134 332v-332h-91v446h136l127 -326zM365 560h-123v-365h-96v365h-122l-1 80h342v-80z" />
    <glyph glyph-name="partialdiff" unicode="&#x2202;" horiz-adv-x="592" 
d="M147 208q0 -61 37 -93.5t102 -32.5q75 0 113.5 35.5t38.5 92.5q0 54 -36 86.5t-108 32.5q-147 0 -147 -121zM252 556l-10 90q13 1 39 1q136 0 204.5 -80t68.5 -246q0 -169 -58.5 -248.5t-208.5 -79.5q-125 0 -186.5 60.5t-61.5 154.5q0 105 65 156t162 51
q78 0 124.5 -31.5t57.5 -71.5q2 118 -34.5 181.5t-132.5 63.5q-20 0 -29 -1z" />
    <glyph glyph-name="minus" unicode="&#x2212;" horiz-adv-x="575" 
d="M534 211h-494v90h494v-90z" />
    <glyph glyph-name="notequal" unicode="&#x2260;" horiz-adv-x="635" 
d="M595 110h-300l-46 -110h-95l46 110h-160v89h199l52 122h-251v88h287l45 103h94l-45 -103h174v-88h-210l-53 -122h263v-89z" />
    <glyph glyph-name="lozenge" unicode="&#x25ca;" horiz-adv-x="1030" 
d="M969 286q17 -12 8.5 -27t-26.5 -5l-51 25l-32 -69q26 -14 33.5 -46.5t-10.5 -57.5q-32 -49 -82 -26l-29 -56q-10 -21 -27 -9l-19 9q-18 11 -8 28l27 53q-1 0 -19 11q-17 11 -13 27.5t20 18.5q-17 12 -6 31t30 11q-7 15 3.5 28t29.5 7l15 -7l35 72l-38 18q-18 9 -14 23.5
t24 12.5l65 -6zM850 541q13 -1 17 -11.5t-2 -20t-19 -9.5l-122 10q52 -60 52 -137q0 -86 -61 -147.5t-147 -61.5t-147 61.5t-61 147.5q0 82 55.5 142t136.5 65q1 0 204 38q13 2 19.5 -7t2.5 -20.5t-16 -13.5l-102 -18l8 -3q1 -1 182 -15zM341 301l-37 -46q13 -63 -26 -111
q-34 -41 -86.5 -47.5t-93.5 27.5t-47 86.5t28 93.5q34 42 87 48t93 -27q12 -8 24 -24h58zM693 457q10 7 10 16.5t-8.5 16t-17.5 1.5l-79 -43q-14 -7 -13.5 -16.5t14.5 -15.5l79 -34q9 -5 17 1t7.5 16t-10.5 15l-45 19zM534 474q-16 19 -40.5 21t-43.5 -12q-19 -16 -20.5 -41
t13.5 -44q16 -19 40.5 -21t43.5 14t21 40t-14 43zM655 311q18 0 18 17.5t-18 17.5h-180q-21 0 -21 -17q0 -46 33 -75q35 -30 83 -32q11 -1 16.5 8t1.5 18.5t-15 9.5q-16 0 -31 6t-22 12l-8 5q-13 13 -17 30h160zM279 214q-4 4 -9 4q-9 0 -9 -8q0 -6 7 -8l3 -1q3 -1 2 -4
l-3 -1q-4 0 -5 3l-5 -4q4 -5 10 -5q10 0 10 9q0 5 -7 7l-3 1q-3 1 -2 4l2 1q2 0 4 -2zM255 202v5h-11v4h11v6h-18v-26h18v7h-11v4h11zM205 229v27h-7v-12v-1l-21 16v-30h7v14v1zM231 191v27h-8v-10h-13v10h-7v-27h7v11h13v-11h8zM137 282q0 7 -5.5 12t-13.5 5q-19 0 -19 -17
q0 -16 19 -16t19 16zM173 232l-16 26l-16 -26l7 -3l2 5h14l3 -5zM197 195v12h-17v-5h9v-4h-2q-2 -1 -3 -1q-8 0 -8 7t8 7q4 0 7 -2l4 5q-7 4 -12 4q-6 0 -10.5 -4.5t-4.5 -9.5q0 -13 16 -13q8 0 13 4zM137 229v27h-8v-27h8zM126 234l-7 7q3 6 3 7q0 8 -10 8h-10v-27h7v10h3
l1 -1l7 -9zM164 204v14h-8v-14q0 -6 -6 -6q-7 0 -7 6v14h-8v-14q0 -14 15 -14q14 0 14 14zM194 160v10q0 9 -10 9q-9 0 -9 -9v-10q0 -9 9 -9q10 0 10 9zM169 160v10q0 9 -10 9q-9 0 -9 -9v-10q0 -9 9 -9q10 0 10 9zM129 191v27h-7v-10h-13v10h-7v-27h7v11h13v-11h7zM144 160
v10q0 9 -9 9t-9 -9v-10q0 -9 9 -9t9 9zM120 151v7h-9l5 6q3 3 3 6q0 9 -10 9q-4 0 -8 -4l-1 -2l5 -4q3 3 4 3q2 0 2.5 -1.5t-0.5 -2.5l-12 -17h21zM506 445q0 -9 -6 -15t-16 -6q-9 0 -15.5 7t-6.5 16t7 15.5t17 6.5q9 -1 15 -8t5 -16zM131 282q0 -11 -13 -11t-13 11
q0 12 13 12t13 -12zM160 240h-7l4 6zM114 248q0 -3 -3 -3h-2v5h2q3 0 3 -2zM186 160q0 -2 -2 -2q-1 0 -1 2v10q0 2 1 2q2 0 2 -2v-10zM162 160q0 -2 -3 -2q-2 0 -2 2v10q0 2 2 2q3 0 3 -2v-10zM137 160l-2 -2q-3 0 -3 2v10q0 2 3 2q2 0 2 -2v-10zM126 278l-4 3q-1 -2 -4 -2
q-4 0 -4 3q0 4 4 4q2 0 4 -2l4 2q-3 5 -8 5q-10 0 -10 -9q0 -8 10 -8q4 0 8 4z" />
    <glyph glyph-name="fi" unicode="&#xfb01;" horiz-adv-x="414" 
d="M389 0h-107v425h-107v-425h-101v425h-73v64l73 22v49q0 81 45.5 116.5t147.5 35.5h122v-87h-109q-60 0 -82.5 -17t-22.5 -52v-44h214v-512z" />
    <glyph glyph-name="fl" unicode="&#xfb02;" horiz-adv-x="441" 
d="M389 0h-107v425h-107v-425h-101v425h-73v64l73 22v49q0 81 45.5 116.5t147.5 35.5q64 0 122 -5v-707zM175 559v-47h107v113h-2q-60 0 -82.5 -16t-22.5 -50z" />
    <glyph glyph-name="CR" horiz-adv-x="0" 
 />
    <glyph glyph-name="caron.salt" horiz-adv-x="205" 
d="M177 563l-23 -169h-69l9 126q-68 0 -68 64q0 36 19.5 49.5t58.5 13.5q42 0 60.5 -18.5t12.5 -65.5z" />
    <glyph glyph-name="commaaccent" horiz-adv-x="225" 
d="M185 -109l-27 -144h-70l15 97q-28 0 -46.5 15t-18.5 44q0 64 74 64q39 0 59.5 -19.5t13.5 -56.5z" />
    <glyph glyph-name="apple" horiz-adv-x="657" 
d="M607 398h-35q5 -5 11 -5q4 0 8 4l10 -8q-10 -7 -18 -7q-25 0 -25 22q0 9 7 15t18 6q24 0 24 -27zM551 394q-11 -12 -22 -12q-10 0 -17 6t-7 16q0 8 7 14.5t17 6.5t22 -11l-10 -9q-8 7 -12 7q-9 0 -9 -8q0 -10 9 -10q2 0 12 8zM496 436q2 -5 -6 -8q-9 0 -9 7q-2 7 6 7
q7 2 9 -6zM322 675q-1 -31 -23 -53t-53 -22t-53 22t-21 53q0 31 22 53t53 22q32 0 53.5 -22t21.5 -53zM495 382h-14v42h14v-42zM474 418l-25 -39l-25 40l12 6l10 -16l3 -5l3 5q4 6 11 15zM420 398h-34l10 -5q4 0 9 4l10 -8q-10 -7 -19 -7q-11 0 -18 6t-7 16q0 8 7.5 14.5
t17.5 6.5q24 0 24 -27zM363 382h-14v3q-3 -3 -12 -3t-15.5 6t-6.5 16q0 9 6.5 15t15.5 6t12 -4v15h14v-54zM418 307q-21 -3 -33 -4.5t-22.5 -7t-14.5 -7t-8.5 -13.5t-5 -16.5t-3.5 -26.5t-5 -33q-21 -134 -31 -199q-32 -1 -62 12.5t-50.5 32.5t-36 38t-22.5 33l-8 13
q-36 72 -54.5 165t-6.5 107q1 2 4 4t12 5t20 -2q-11 -101 -6 -154l45 6q-5 25 -9.5 74t-4 101.5t10.5 63.5q1 2 4 3.5t12.5 4.5t19.5 -3q-23 -133 -21 -242l45 8q-3 39 3 158.5t23 135.5q2 2 4.5 3.5t12.5 4t20 -3.5q-17 -72 -33 -169.5t-16 -127.5l40 6q11 108 22 174.5
t17 79.5l5 13q2 2 5 4.5t13.5 6t21.5 -6.5q-28 -70 -46.5 -142.5t-23.5 -109.5l-5 -37q-10 -110 22 -115q18 -3 33 28q7 14 9 28q4 27 0 49t-8 38.5t-6.5 28t4 17t24.5 4.5q25 -2 55 -10.5t35 -19.5zM592 409q0 5 -9 5q-6 0 -11 -5h20zM287 676q2 16 -9 27t-28 11h-29
l-9 -77h28q18 0 31.5 11t15.5 28zM406 409q-5 5 -10 5l-10 -5h20zM349 404q0 8 -9 8q-11 0 -11 -8q0 -10 11 -10q9 0 9 10zM266 676q-2 -20 -25 -20h-6l5 39h6q10 0 15.5 -5.5t4.5 -13.5z" />
    <glyph glyph-name="f.salt" horiz-adv-x="406" 
d="M425 555h-90q0 41 -18 57.5t-57 16.5q-70 0 -70 -69v-48h197v-85h-197v-427h-100v427h-74v63l74 22v49q0 154 166 154q96 0 132.5 -39.5t36.5 -120.5z" />
    <glyph glyph-name="t.salt" horiz-adv-x="439" 
d="M419 152q0 -80 -39 -119.5t-136 -39.5q-88 0 -123.5 38.5t-35.5 114.5v286h-79v57l79 23v128h95v-128h221v-80h-217v-286q0 -35 15.5 -52t51.5 -17q39 0 57 16.5t18 58.5h93z" />
    <glyph glyph-name="R.salt" horiz-adv-x="615" 
d="M570 0h-111v85q0 85 -31 122.5t-118 37.5h-134v-245h-110v640h228q69 0 120 -13.5t78 -33t43.5 -48.5t20.5 -52.5t4 -52.5q0 -54 -21.5 -94t-82.5 -60q114 -28 114 -197v-89zM449 440q0 48 -31 79t-119 31h-123v-218h125q87 0 117.5 30t30.5 78z" />
    </font>
</defs>
</svg>
